<svg width="1em" height="1em" viewBox="0 0 19 19" fill="none" xmlns="http://www.w3.org/2000/svg">
<path d="M6.45833 6.0083V12.4996C6.45831 13.5048 6.73918 14.49 7.26927 15.3441C7.79935 16.1982 8.55755 16.8872 9.45833 17.3333" stroke="currentColor" opacity="0.4" stroke-linecap="round" stroke-linejoin="round"/>
<path d="M16.9583 4.1963C16.9583 4.07031 16.9266 3.94636 16.866 3.83587C16.8055 3.72539 16.7181 3.63194 16.6119 3.56415C16.5057 3.49637 16.3841 3.45643 16.2584 3.44802C16.1327 3.43962 16.0069 3.46301 15.8926 3.51605C13.0163 4.8503 10.1753 6.0563 4.20833 6.0833H3.45833C2.86159 6.0833 2.2893 6.32036 1.86734 6.74231C1.44538 7.16427 1.20833 7.73657 1.20833 8.33331V9.83331C1.20833 10.43 1.44538 11.0023 1.86734 11.4243C2.2893 11.8463 2.86159 12.0833 3.45833 12.0833H4.20833C10.1753 12.1103 13.0163 13.3163 15.8926 14.6506C16.0069 14.7036 16.1327 14.727 16.2584 14.7186C16.3841 14.7102 16.5057 14.6702 16.6119 14.6025C16.7181 14.5347 16.8055 14.4412 16.866 14.3307C16.9266 14.2203 16.9583 14.0963 16.9583 13.9703V4.1963Z" stroke="currentColor" stroke-linecap="round" stroke-linejoin="round"/>
<path d="M16.9583 7.58331H17.3333C17.6317 7.58331 17.9178 7.70184 18.1288 7.91282C18.3398 8.1238 18.4583 8.40994 18.4583 8.70831V9.45831C18.4583 9.75668 18.3398 10.0428 18.1288 10.2538C17.9178 10.4648 17.6317 10.5833 17.3333 10.5833H16.9583" stroke="currentColor" stroke-linecap="round" stroke-linejoin="round"/>
</svg>
