<svg width="1em" height="1em" viewBox="0 0 19 19" fill="none" xmlns="http://www.w3.org/2000/svg">
<path d="M13.5833 17.3476C13.5645 17.4217 13.5234 17.4884 13.4656 17.5385C13.4078 17.5886 13.336 17.6199 13.2599 17.628C13.1838 17.6362 13.107 17.6209 13.0399 17.5842C12.9728 17.5474 12.9185 17.491 12.8843 17.4226L8.83658 9.33832C8.8013 9.26791 8.78909 9.18818 8.80167 9.11043C8.81426 9.03268 8.851 8.96087 8.90669 8.90518C8.96238 8.84949 9.03419 8.81275 9.11194 8.80017C9.18968 8.78758 9.26942 8.7998 9.33983 8.83507L17.4263 12.8783C17.4951 12.9124 17.5517 12.9667 17.5886 13.0339C17.6256 13.1011 17.641 13.1781 17.6328 13.2543C17.6246 13.3306 17.5933 13.4025 17.5429 13.4604C17.4926 13.5183 17.4257 13.5594 17.3513 13.5781L14.3333 14.3333L13.5833 17.3476Z" stroke="currentColor" opacity="0.4" stroke-linecap="round" stroke-linejoin="round"/>
<path d="M8.33333 15.4583C6.92414 15.4583 5.54659 15.0404 4.37489 14.2575C3.20319 13.4746 2.28996 12.3619 1.75069 11.0599C1.21142 9.75801 1.07032 8.32541 1.34524 6.9433C1.62016 5.56118 2.29875 4.29163 3.2952 3.29518C4.29164 2.29873 5.5612 1.62014 6.94331 1.34522C8.32543 1.0703 9.75803 1.2114 11.06 1.75067C12.3619 2.28995 13.4746 3.20318 14.2576 4.37488C15.0405 5.54658 15.4583 6.92412 15.4583 8.33332" stroke="currentColor" stroke-linecap="round" stroke-linejoin="round"/>
<path d="M7.26083 12.3158C6.56302 12.1281 5.92675 11.7605 5.41571 11.2496C4.90468 10.7387 4.53681 10.1025 4.34894 9.40479C4.16107 8.70703 4.1598 7.97217 4.34523 7.27376C4.53067 6.57536 4.89632 5.93792 5.40557 5.42526C5.91483 4.9126 6.54982 4.54271 7.24697 4.35262C7.94412 4.16253 8.67898 4.15891 9.37797 4.34213C10.077 4.52534 10.7156 4.88896 11.2298 5.39658C11.7441 5.9042 12.116 6.53801 12.3083 7.23456" stroke="currentColor" stroke-linecap="round" stroke-linejoin="round"/>
</svg>
