<svg width="1em" height="1em" viewBox="0 0 19 19" fill="none" xmlns="http://www.w3.org/2000/svg">
<path d="M7.20833 18.4583H1.58333C1.48388 18.4583 1.3885 18.4188 1.31817 18.3485C1.24784 18.2782 1.20833 18.1828 1.20833 18.0833V11.3333C1.20833 11.2339 1.24784 11.1385 1.31817 11.0682C1.3885 10.9979 1.48388 10.9583 1.58333 10.9583H6.45833" stroke="currentColor" stroke-linecap="round" stroke-linejoin="round"/>
<path d="M13.2083 10.9583H18.0833C18.1828 10.9583 18.2782 10.9979 18.3485 11.0682C18.4188 11.1385 18.4583 11.2339 18.4583 11.3333V18.0833C18.4583 18.1828 18.4188 18.2782 18.3485 18.3485C18.2782 18.4188 18.1828 18.4583 18.0833 18.4583H12.4583" stroke="currentColor" stroke-linecap="round" stroke-linejoin="round"/>
<path d="M10.9583 15.0833C10.9583 14.785 10.8398 14.4988 10.6288 14.2878C10.4179 14.0769 10.1317 13.9583 9.83333 13.9583C9.53497 13.9583 9.24882 14.0769 9.03784 14.2878C8.82686 14.4988 8.70833 14.785 8.70833 15.0833V18.4583H10.9583V15.0833Z" stroke="currentColor" opacity="0.4" stroke-linecap="round" stroke-linejoin="round"/>
<path d="M9.45833 5.72934V3.45834" stroke="currentColor" stroke-linecap="round" stroke-linejoin="round"/>
<path d="M9.45833 1.20834H12.4583C12.5578 1.20834 12.6532 1.24785 12.7235 1.31818C12.7938 1.3885 12.8333 1.48389 12.8333 1.58334V3.08334C12.8333 3.1828 12.7938 3.27818 12.7235 3.34851C12.6532 3.41883 12.5578 3.45834 12.4583 3.45834H9.45833V1.20834Z" stroke="currentColor" stroke-linecap="round" stroke-linejoin="round"/>
<path d="M9.83333 10.2083C10.4547 10.2083 10.9583 9.70466 10.9583 9.08334C10.9583 8.46202 10.4547 7.95834 9.83333 7.95834C9.21201 7.95834 8.70833 8.46202 8.70833 9.08334C8.70833 9.70466 9.21201 10.2083 9.83333 10.2083Z" stroke="currentColor" opacity="0.4" stroke-linecap="round" stroke-linejoin="round"/>
<path d="M13.2083 9.08334C13.2083 8.18824 12.8528 7.32979 12.2198 6.69686C11.5869 6.06392 10.7284 5.70834 9.83333 5.70834C8.93823 5.70834 8.07978 6.06392 7.44685 6.69686C6.81391 7.32979 6.45833 8.18824 6.45833 9.08334V18.4583H13.2083V9.08334Z" stroke="currentColor" stroke-linecap="round" stroke-linejoin="round"/>
</svg>
