<svg width="1em" height="1em" viewBox="0 0 42 34" fill="none" xmlns="http://www.w3.org/2000/svg">
    <path d="M24.3527 6.92517C24.4031 7.14193 24.5365 7.33025 24.7244 7.44954C26.6276 8.68466 28.8447 9.34891 31.1135 9.36372C31.6412 9.36272 32.1681 9.32301 32.6899 9.24493C32.8205 9.22543 32.9538 9.23667 33.0793 9.27773C33.2047 9.3188 33.3188 9.38857 33.4126 9.4815C33.5063 9.57442 33.5771 9.68794 33.6193 9.81302C33.6615 9.93811 33.6739 10.0713 33.6555 10.202C33.4502 11.3869 32.835 12.462 31.9175 13.2393C31 14.0167 29.8384 14.4468 28.6359 14.4546C27.7765 14.4553 26.9317 14.2331 26.1838 13.8098C26.0648 13.742 25.9265 13.7162 25.7911 13.7365C25.6556 13.7567 25.531 13.8219 25.437 13.9215C25.3431 14.0211 25.2853 14.1494 25.273 14.2858C25.2607 14.4222 25.2946 14.5587 25.3692 14.6735C25.7759 15.3071 26.0034 16.0389 26.0276 16.7914C26.0342 16.9739 26.0995 17.1495 26.2139 17.292C26.3282 17.4345 26.4855 17.5362 26.6623 17.5821C27.3061 17.7548 27.9694 17.8444 28.6359 17.8486C29.9943 17.8525 31.3338 17.5302 32.5418 16.9088C33.7498 16.2874 34.7909 15.3851 35.5777 14.2776C36.3644 13.1702 36.8737 11.8901 37.0628 10.5448C37.2519 9.19964 37.1152 7.82868 36.6643 6.54727C36.2134 5.26586 35.4614 4.11144 34.4715 3.18109C33.4817 2.25075 32.2829 1.57167 30.976 1.20096C29.6691 0.830248 28.2924 0.778742 26.9614 1.05077C25.6305 1.3228 24.3844 1.91042 23.3278 2.7642C23.1701 2.89185 23.0634 3.07175 23.027 3.2713C22.9906 3.47085 23.0268 3.67685 23.1292 3.85196C23.6886 4.80935 24.101 5.8453 24.3527 6.92517Z" fill="#8C8C8C"/>
    <path d="M41.3633 32.2727C41.3597 28.8983 40.0177 25.6632 37.6316 23.2771C35.2456 20.8911 32.0104 19.549 28.636 19.5454C27.2027 19.5473 25.7804 19.7953 24.431 20.2785C24.3131 20.3203 24.2077 20.3911 24.1246 20.4846C24.0415 20.578 23.9833 20.6909 23.9555 20.8128C23.9278 20.9347 23.9313 21.0617 23.9657 21.1819C24.0002 21.3021 24.0645 21.4116 24.1527 21.5003C25.5728 22.912 26.7 24.5904 27.4695 26.4391C28.2389 28.2877 28.6353 30.2703 28.636 32.2727V32.3134C28.6345 32.4189 28.6539 32.5237 28.6932 32.6216C28.7325 32.7196 28.7909 32.8087 28.8649 32.8839C28.939 32.959 29.0272 33.0187 29.1246 33.0595C29.2219 33.1002 29.3264 33.1212 29.4319 33.1212H40.5148C40.7399 33.1212 40.9557 33.0318 41.1148 32.8727C41.2739 32.7135 41.3633 32.4977 41.3633 32.2727Z" fill="#8C8C8C"/>
    <path d="M0.63623 32.2727C0.63623 32.4977 0.725624 32.7135 0.884746 32.8727C1.04387 33.0318 1.25968 33.1212 1.48472 33.1212H25.2423C25.4673 33.1212 25.6831 33.0318 25.8423 32.8727C26.0014 32.7135 26.0908 32.4977 26.0908 32.2727C26.0908 28.8972 24.7499 25.66 22.363 23.2731C19.9762 20.8863 16.739 19.5454 13.3635 19.5454C9.98802 19.5454 6.75079 20.8863 4.36396 23.2731C1.97714 25.66 0.63623 28.8972 0.63623 32.2727H0.63623Z" fill="#8C8C8C"/>
    <path d="M22.726 18.3996C23.1045 18.1561 23.3708 17.7723 23.4663 17.3325C23.5617 16.8926 23.4786 16.4329 23.2351 16.0544C22.4378 14.7196 22.0441 13.1825 22.1015 11.6287V9.44133C22.1015 7.1703 21.1994 4.99229 19.5935 3.38644C17.9877 1.78058 15.8096 0.878418 13.5386 0.878418C11.2676 0.878418 9.08959 1.78058 7.48373 3.38644C5.87787 4.99229 4.97571 7.1703 4.97571 9.44133V11.6287C5.03394 13.1826 4.64017 14.7199 3.84214 16.0544C3.5982 16.4327 3.51453 16.8924 3.60952 17.3324C3.70452 17.7723 3.9704 18.1565 4.34868 18.4005C4.72696 18.6444 5.18665 18.7281 5.62662 18.6331C6.06659 18.5381 6.45081 18.2722 6.69474 17.8939C7.02167 17.3781 7.2957 16.8306 7.51268 16.2598C7.53728 16.1978 7.57617 16.1426 7.62617 16.0986C7.67618 16.0546 7.73588 16.023 7.80041 16.0065C7.86493 15.9899 7.93246 15.9889 7.99747 16.0034C8.06249 16.0179 8.12314 16.0476 8.1745 16.0901C9.68562 17.3327 11.5813 18.012 13.5378 18.012C15.4942 18.012 17.3899 17.3327 18.901 16.0901C18.9525 16.0476 19.0133 16.018 19.0785 16.0034C19.1436 15.9889 19.2112 15.99 19.2759 16.0065C19.3405 16.0231 19.4003 16.0546 19.4505 16.0986C19.5007 16.1426 19.5397 16.1978 19.5646 16.2598C19.7808 16.8315 20.0549 17.3796 20.3825 17.8956C20.6268 18.2728 21.0107 18.5377 21.45 18.6322C21.8894 18.7267 22.3483 18.643 22.726 18.3996ZM8.43074 10.2542C8.39902 10.0533 8.44051 9.84768 8.54765 9.67482C8.6548 9.50195 8.82047 9.37332 9.0145 9.31236C10.629 8.80821 12.0889 7.90193 13.2569 6.67866C13.2965 6.63707 13.3442 6.60397 13.397 6.58135C13.4498 6.55872 13.5066 6.54706 13.5641 6.54706C13.6215 6.54706 13.6784 6.55872 13.7312 6.58135C13.7839 6.60397 13.8316 6.63707 13.8712 6.67866C15.0266 7.88686 16.4666 8.78597 18.0593 9.29369C18.2517 9.35519 18.4159 9.48331 18.5223 9.65502C18.6287 9.82673 18.6703 10.0308 18.6397 10.2304C18.4545 11.4501 17.8389 12.5633 16.9042 13.3685C15.9695 14.1737 14.7775 14.6178 13.5438 14.6205C12.3102 14.6232 11.1162 14.1842 10.1781 13.383C9.23995 12.5819 8.61952 11.4714 8.42904 10.2525L8.43074 10.2542Z" fill="#8C8C8C"/>
</svg>
