<svg width="1em" height="1em" viewBox="0 0 20 19" fill="none" xmlns="http://www.w3.org/2000/svg">
<path d="M9.91659 1.58331C5.15334 1.58331 1.29159 4.77306 1.29159 8.70831C1.31159 9.68806 1.55106 10.6509 1.99237 11.5258C2.43368 12.4008 3.06559 13.1656 3.84159 13.7641L2.04159 18.0833L6.82059 15.3526C7.82169 15.6712 8.86599 15.8334 9.91659 15.8333C14.6798 15.8333 18.5416 12.6436 18.5416 8.70831C18.5416 4.77306 14.6798 1.58331 9.91659 1.58331Z" stroke="currentColor" stroke-linecap="round" stroke-linejoin="round"/>
<path d="M5.79159 7.20831C5.79159 6.81049 5.94962 6.42896 6.23093 6.14765C6.51223 5.86635 6.89376 5.70831 7.29159 5.70831C7.68941 5.70831 8.07094 5.86635 8.35225 6.14765C8.63355 6.42896 8.79159 6.81049 8.79159 7.20831" stroke="currentColor" opacity="0.4" stroke-linecap="round" stroke-linejoin="round"/>
<path d="M14.0416 7.20831C14.0416 6.81049 13.8836 6.42896 13.6022 6.14765C13.3209 5.86635 12.9394 5.70831 12.5416 5.70831C12.1438 5.70831 11.7622 5.86635 11.4809 6.14765C11.1996 6.42896 11.0416 6.81049 11.0416 7.20831" stroke="currentColor" opacity="0.4" stroke-linecap="round" stroke-linejoin="round"/>
<path d="M11.7916 9.83331C11.7916 10.3306 11.594 10.8075 11.2424 11.1591C10.8908 11.5108 10.4139 11.7083 9.91659 11.7083C9.41931 11.7083 8.94239 11.5108 8.59076 11.1591C8.23913 10.8075 8.04159 10.3306 8.04159 9.83331" stroke="currentColor" opacity="0.4" stroke-linecap="round" stroke-linejoin="round"/>
</svg>
