<svg width="1em" height="1em" viewBox="0 0 19 19" fill="none" xmlns="http://www.w3.org/2000/svg">
<path d="M5.70833 13.2083H13.9583" stroke="currentColor" opacity="0.4" stroke-linecap="round" stroke-linejoin="round"/>
<path d="M1.95833 13.9583H4.20833" stroke="currentColor" opacity="0.4" stroke-linecap="round" stroke-linejoin="round"/>
<path d="M15.4583 13.9583H17.7083" stroke="currentColor" opacity="0.4" stroke-linecap="round" stroke-linejoin="round"/>
<path d="M7.20833 3.45834H12.4583C13.254 3.45834 14.017 3.77441 14.5797 4.33702C15.1423 4.89963 15.4583 5.66269 15.4583 6.45834V18.4583H4.20833V6.45834C4.20833 5.66269 4.5244 4.89963 5.08701 4.33702C5.64962 3.77441 6.41268 3.45834 7.20833 3.45834V3.45834Z" stroke="currentColor" stroke-linecap="round" stroke-linejoin="round"/>
<path d="M7.58333 3.45834C7.58333 2.86161 7.82039 2.28931 8.24234 1.86735C8.6643 1.4454 9.2366 1.20834 9.83333 1.20834C10.4301 1.20834 11.0024 1.4454 11.4243 1.86735C11.8463 2.28931 12.0833 2.86161 12.0833 3.45834" stroke="currentColor" stroke-linecap="round" stroke-linejoin="round"/>
<path d="M4.20833 18.4583H3.45833C3.06051 18.4583 2.67898 18.3003 2.39767 18.019C2.11637 17.7377 1.95833 17.3562 1.95833 16.9583V13.2083C1.95833 12.8105 2.11637 12.429 2.39767 12.1477C2.67898 11.8664 3.06051 11.7083 3.45833 11.7083H4.20833" stroke="currentColor" stroke-linecap="round" stroke-linejoin="round"/>
<path d="M15.4583 11.7083H16.2083C16.6062 11.7083 16.9877 11.8664 17.269 12.1477C17.5503 12.429 17.7083 12.8105 17.7083 13.2083V16.9583C17.7083 17.3562 17.5503 17.7377 17.269 18.019C16.9877 18.3003 16.6062 18.4583 16.2083 18.4583H15.4583" stroke="currentColor" stroke-linecap="round" stroke-linejoin="round"/>
<path d="M12.4583 10.9583H7.20833C6.37991 10.9583 5.70833 11.6299 5.70833 12.4583V15.4583C5.70833 16.2868 6.37991 16.9583 7.20833 16.9583H12.4583C13.2868 16.9583 13.9583 16.2868 13.9583 15.4583V12.4583C13.9583 11.6299 13.2868 10.9583 12.4583 10.9583Z" stroke="currentColor" stroke-linecap="round" stroke-linejoin="round"/>
</svg>
