<svg width="1em" height="1em" viewBox="0 0 19 19" fill="none" xmlns="http://www.w3.org/2000/svg">
<path d="M8.33333 12.4583H11.3333C11.5322 12.4583 11.723 12.5373 11.8637 12.678C12.0043 12.8187 12.0833 13.0094 12.0833 13.2083V18.4583H7.58333V13.2083C7.58333 13.0094 7.66235 12.8187 7.803 12.678C7.94366 12.5373 8.13442 12.4583 8.33333 12.4583V12.4583Z" stroke="currentColor" opacity="0.4" stroke-linecap="round" stroke-linejoin="round"/>
<path d="M3.45833 8.33333V17.7083C3.45833 17.9072 3.53735 18.098 3.678 18.2387C3.81866 18.3793 4.00942 18.4583 4.20833 18.4583H15.4583C15.6572 18.4583 15.848 18.3793 15.9887 18.2387C16.1293 18.098 16.2083 17.9072 16.2083 17.7083V8.33333" stroke="currentColor" stroke-linecap="round" stroke-linejoin="round"/>
<path d="M1.20833 10.5833L9.83333 1.95833L18.4583 10.5833" stroke="currentColor" stroke-linecap="round" stroke-linejoin="round"/>
</svg>
