<svg width="1em" height="1em" viewBox="0 0 19 19" fill="none" xmlns="http://www.w3.org/2000/svg">
<path d="M13.1956 9.99531C13.894 9.29839 14.8403 8.90698 15.827 8.90698C16.8136 8.90698 17.7599 9.29839 18.4583 9.99531" stroke="currentColor" opacity="0.4" stroke-linecap="round" stroke-linejoin="round"/>
<path d="M9.65934 6.47181C10.0051 6.12628 10.2793 5.71601 10.4665 5.26444C10.6536 4.81288 10.7499 4.32886 10.7499 3.84006C10.7499 3.35126 10.6536 2.86725 10.4665 2.41568C10.2793 1.96412 10.0051 1.55385 9.65934 1.20831" stroke="currentColor" opacity="0.4" stroke-linecap="round" stroke-linejoin="round"/>
<path d="M14.3896 7.02004L17.0213 6.14404" stroke="currentColor" opacity="0.4" stroke-linecap="round" stroke-linejoin="round"/>
<path d="M12.6353 5.26733L13.5128 2.63483" stroke="currentColor" opacity="0.4" stroke-linecap="round" stroke-linejoin="round"/>
<path d="M6.80708 4.41156C6.85681 4.41156 6.9045 4.43131 6.93966 4.46648C6.97482 4.50164 6.99458 4.54933 6.99458 4.59906" stroke="currentColor" stroke-linecap="round" stroke-linejoin="round"/>
<path d="M6.61958 4.59906C6.61958 4.54933 6.63934 4.50164 6.6745 4.46648C6.70966 4.43131 6.75736 4.41156 6.80708 4.41156" stroke="currentColor" stroke-linecap="round" stroke-linejoin="round"/>
<path d="M6.80708 4.78656C6.75736 4.78656 6.70966 4.76681 6.6745 4.73164C6.63934 4.69648 6.61958 4.64879 6.61958 4.59906" stroke="currentColor" stroke-linecap="round" stroke-linejoin="round"/>
<path d="M6.99458 4.59906C6.99458 4.64879 6.97482 4.69648 6.93966 4.73164C6.9045 4.76681 6.85681 4.78656 6.80708 4.78656" stroke="currentColor" stroke-linecap="round" stroke-linejoin="round"/>
<path d="M12.4321 6.66156C12.4818 6.66156 12.5295 6.68131 12.5647 6.71648C12.5998 6.75164 12.6196 6.79933 12.6196 6.84906" stroke="currentColor" stroke-linecap="round" stroke-linejoin="round"/>
<path d="M12.2446 6.84906C12.2446 6.79933 12.2643 6.75164 12.2995 6.71648C12.3347 6.68131 12.3824 6.66156 12.4321 6.66156" stroke="currentColor" stroke-linecap="round" stroke-linejoin="round"/>
<path d="M12.4321 7.03656C12.3824 7.03656 12.3347 7.01681 12.2995 6.98164C12.2643 6.94648 12.2446 6.89879 12.2446 6.84906" stroke="currentColor" stroke-linecap="round" stroke-linejoin="round"/>
<path d="M12.6196 6.84906C12.6196 6.89879 12.5998 6.94648 12.5647 6.98164C12.5295 7.01681 12.4818 7.03656 12.4321 7.03656" stroke="currentColor" stroke-linecap="round" stroke-linejoin="round"/>
<path d="M15.4321 11.1616C15.4818 11.1616 15.5295 11.1813 15.5647 11.2165C15.5998 11.2516 15.6196 11.2993 15.6196 11.3491" stroke="currentColor" stroke-linecap="round" stroke-linejoin="round"/>
<path d="M15.2446 11.3491C15.2446 11.2993 15.2643 11.2516 15.2995 11.2165C15.3347 11.1813 15.3824 11.1616 15.4321 11.1616" stroke="currentColor" stroke-linecap="round" stroke-linejoin="round"/>
<path d="M15.4321 11.5366C15.3824 11.5366 15.3347 11.5168 15.2995 11.4816C15.2643 11.4465 15.2446 11.3988 15.2446 11.3491" stroke="currentColor" stroke-linecap="round" stroke-linejoin="round"/>
<path d="M15.6196 11.3491C15.6196 11.3988 15.5998 11.4465 15.5647 11.4816C15.5295 11.5168 15.4818 11.5366 15.4321 11.5366" stroke="currentColor" stroke-linecap="round" stroke-linejoin="round"/>
<path d="M15.8071 3.66156C15.8568 3.66156 15.9045 3.68131 15.9397 3.71648C15.9748 3.75164 15.9946 3.79933 15.9946 3.84906" stroke="currentColor" stroke-linecap="round" stroke-linejoin="round"/>
<path d="M15.6196 3.84906C15.6196 3.79933 15.6393 3.75164 15.6745 3.71648C15.7097 3.68131 15.7574 3.66156 15.8071 3.66156" stroke="currentColor" stroke-linecap="round" stroke-linejoin="round"/>
<path d="M15.8071 4.03656C15.7574 4.03656 15.7097 4.01681 15.6745 3.98164C15.6393 3.94648 15.6196 3.89879 15.6196 3.84906" stroke="currentColor" stroke-linecap="round" stroke-linejoin="round"/>
<path d="M15.9946 3.84906C15.9946 3.89879 15.9748 3.94648 15.9397 3.98164C15.9045 4.01681 15.8568 4.03656 15.8071 4.03656" stroke="currentColor" stroke-linecap="round" stroke-linejoin="round"/>
<path d="M12.3763 13.1238C13.1085 12.3916 12.3962 10.4921 10.7853 8.88119C9.17441 7.27028 7.27492 6.55797 6.54268 7.2902C5.81045 8.02244 6.52276 9.92193 8.13368 11.5328C9.74459 13.1438 11.6441 13.8561 12.3763 13.1238Z" stroke="currentColor" stroke-linecap="round" stroke-linejoin="round"/>
<path d="M12.1921 13.2645L2.69634 18.339C2.50501 18.4414 2.28584 18.4794 2.07122 18.4475C1.85661 18.4157 1.65793 18.3156 1.50455 18.1622C1.35118 18.0087 1.25124 17.81 1.21951 17.5954C1.18777 17.3807 1.22593 17.1616 1.32834 16.9703L6.40209 7.47455" stroke="currentColor" stroke-linecap="round" stroke-linejoin="round"/>
</svg>
