<svg width="1em" height="1em" viewBox="0 0 19 19" fill="none" xmlns="http://www.w3.org/2000/svg">
<path d="M7.39584 9.83334C7.44556 9.83334 7.49325 9.8531 7.52842 9.88826C7.56358 9.92342 7.58333 9.97112 7.58333 10.0208" stroke="currentColor" stroke-linecap="round" stroke-linejoin="round"/>
<path d="M7.20833 10.0208C7.20833 9.97112 7.22809 9.92342 7.26325 9.88826C7.29841 9.8531 7.3461 9.83334 7.39583 9.83334" stroke="currentColor" stroke-linecap="round" stroke-linejoin="round"/>
<path d="M7.39583 10.2083C7.3461 10.2083 7.29841 10.1886 7.26325 10.1534C7.22809 10.1183 7.20833 10.0706 7.20833 10.0208" stroke="currentColor" stroke-linecap="round" stroke-linejoin="round"/>
<path d="M7.58333 10.0208C7.58333 10.0706 7.56358 10.1183 7.52842 10.1534C7.49325 10.1886 7.44556 10.2083 7.39584 10.2083" stroke="currentColor" stroke-linecap="round" stroke-linejoin="round"/>
<path d="M12.2708 9.83334C12.3206 9.83334 12.3683 9.8531 12.4034 9.88826C12.4386 9.92342 12.4583 9.97112 12.4583 10.0208" stroke="currentColor" stroke-linecap="round" stroke-linejoin="round"/>
<path d="M12.0833 10.0208C12.0833 9.97112 12.1031 9.92342 12.1383 9.88826C12.1734 9.8531 12.2211 9.83334 12.2708 9.83334" stroke="currentColor" stroke-linecap="round" stroke-linejoin="round"/>
<path d="M12.2708 10.2083C12.2211 10.2083 12.1734 10.1886 12.1383 10.1534C12.1031 10.1183 12.0833 10.0706 12.0833 10.0208" stroke="currentColor" stroke-linecap="round" stroke-linejoin="round"/>
<path d="M12.4583 10.0208C12.4583 10.0706 12.4386 10.1183 12.4034 10.1534C12.3683 10.1886 12.3206 10.2083 12.2708 10.2083" stroke="currentColor" stroke-linecap="round" stroke-linejoin="round"/>
<path d="M7.58333 13.3988C7.80917 13.7965 8.13637 14.1272 8.53161 14.3573C8.92685 14.5874 9.37601 14.7086 9.83333 14.7086C10.2907 14.7086 10.7398 14.5874 11.1351 14.3573C11.5303 14.1272 11.8575 13.7965 12.0833 13.3988" stroke="currentColor" stroke-linecap="round" stroke-linejoin="round"/>
<path d="M17.3333 10.2083H17.2958C17.1101 8.35819 16.2438 6.643 14.8648 5.39556C13.4859 4.14813 11.6928 3.4574 9.83333 3.4574C7.97389 3.4574 6.18075 4.14813 4.80183 5.39556C3.42291 6.643 2.55655 8.35819 2.37083 10.2083H2.33333C2.03497 10.2083 1.74882 10.3269 1.53784 10.5378C1.32686 10.7488 1.20833 11.035 1.20833 11.3333C1.20833 11.6317 1.32686 11.9179 1.53784 12.1288C1.74882 12.3398 2.03497 12.4583 2.33333 12.4583C2.38349 12.4582 2.43358 12.4549 2.48333 12.4486C2.82761 14.144 3.74743 15.6683 5.08695 16.7632C6.42646 17.858 8.1033 18.4561 9.83333 18.4561C11.5634 18.4561 13.2402 17.858 14.5797 16.7632C15.9192 15.6683 16.8391 14.144 17.1833 12.4486C17.2331 12.4549 17.2832 12.4582 17.3333 12.4583C17.6317 12.4583 17.9179 12.3398 18.1288 12.1288C18.3398 11.9179 18.4583 11.6317 18.4583 11.3333C18.4583 11.035 18.3398 10.7488 18.1288 10.5378C17.9179 10.3269 17.6317 10.2083 17.3333 10.2083Z" stroke="currentColor" stroke-linecap="round" stroke-linejoin="round"/>
<path d="M11.4083 1.20834C11.842 1.47587 12.2005 1.84947 12.4498 2.2939C12.6991 2.73833 12.8311 3.23895 12.8333 3.74853C12.8356 4.25811 12.708 4.75986 12.4625 5.20646C12.2171 5.65306 11.862 6.02978 11.4306 6.3011C10.9993 6.57242 10.5059 6.72938 9.9971 6.7572C9.48828 6.78501 8.98075 6.68275 8.52239 6.46007C8.06404 6.23738 7.66996 5.90161 7.37733 5.48442C7.0847 5.06724 6.90316 4.58238 6.84983 4.07559" stroke="currentColor" opacity="0.4" stroke-linecap="round" stroke-linejoin="round"/>
</svg>
