<svg width="1em" height="1em" viewBox="0 0 19 19" fill="none" xmlns="http://www.w3.org/2000/svg">
<path d="M6.45833 9.08334V11.3333" stroke="currentColor" opacity="0.4" stroke-linecap="round" stroke-linejoin="round"/>
<path d="M4.95833 18.4583L4.58333 13.9583H2.70833V11.3333C2.70833 10.3388 3.10342 9.38495 3.80668 8.68169C4.50994 7.97843 5.46377 7.58334 6.45833 7.58334C7.45289 7.58334 8.40672 7.97843 9.10998 8.68169C9.81324 9.38495 10.2083 10.3388 10.2083 11.3333V13.9583H8.33333L7.95833 18.4583H4.95833Z" stroke="currentColor" stroke-linecap="round" stroke-linejoin="round"/>
<path d="M4.19633 2.50058C4.60284 2.92219 5.09017 3.25751 5.62921 3.4865C6.16825 3.71549 6.74792 3.83345 7.33358 3.83333C7.92671 3.83347 8.51364 3.71276 9.05858 3.47858" stroke="currentColor" opacity="0.4" stroke-linecap="round" stroke-linejoin="round"/>
<path d="M6.45833 6.45834C7.90808 6.45834 9.08333 5.28309 9.08333 3.83334C9.08333 2.3836 7.90808 1.20834 6.45833 1.20834C5.00859 1.20834 3.83333 2.3836 3.83333 3.83334C3.83333 5.28309 5.00859 6.45834 6.45833 6.45834Z" stroke="currentColor" stroke-linecap="round" stroke-linejoin="round"/>
<path d="M13.9583 10.2083C14.8903 10.2083 15.6458 9.45282 15.6458 8.52084C15.6458 7.58886 14.8903 6.83334 13.9583 6.83334C13.0264 6.83334 12.2708 7.58886 12.2708 8.52084C12.2708 9.45282 13.0264 10.2083 13.9583 10.2083Z" stroke="currentColor" stroke-linecap="round" stroke-linejoin="round"/>
<path d="M16.9583 16.2084L15.8701 12.4006C15.7518 11.9845 15.5011 11.6184 15.156 11.3577C14.8109 11.097 14.3901 10.9559 13.9576 10.9559C13.525 10.9559 13.1043 11.097 12.7592 11.3577C12.414 11.6184 12.1633 11.9845 12.0451 12.4006L10.9583 16.2084H12.9586L13.2083 18.4584H14.7083L14.9581 16.2084H16.9583Z" stroke="currentColor" stroke-linecap="round" stroke-linejoin="round"/>
</svg>
