<svg width="1em" height="1em" viewBox="0 0 19 19" fill="none" xmlns="http://www.w3.org/2000/svg">
<path d="M15.7748 6.24304C15.6903 6.4207 15.644 6.61412 15.639 6.81079C15.6339 7.00745 15.6702 7.20299 15.7455 7.38475C15.8208 7.56651 15.9334 7.73043 16.0761 7.86592C16.2187 8.00141 16.3882 8.10545 16.5736 8.1713L17.5223 8.5088C17.7961 8.60597 18.0331 8.78555 18.2007 9.02285C18.3682 9.26015 18.4582 9.54354 18.4582 9.83405C18.4582 10.1246 18.3682 10.4079 18.2007 10.6452C18.0331 10.8825 17.7961 11.0621 17.5223 11.1593L16.5736 11.4968C16.3882 11.5626 16.2187 11.6667 16.0761 11.8022C15.9334 11.9377 15.8208 12.1016 15.7455 12.2833C15.6702 12.4651 15.6339 12.6606 15.639 12.8573C15.644 13.054 15.6903 13.2474 15.7748 13.425L16.2083 14.3333C16.3337 14.5957 16.3745 14.8905 16.3254 15.1771C16.2762 15.4638 16.1394 15.7281 15.9337 15.9337C15.7281 16.1393 15.4638 16.2762 15.1772 16.3253C14.8906 16.3745 14.5957 16.3336 14.3333 16.2083L13.4236 15.7763C13.2459 15.6918 13.0525 15.6455 12.8558 15.6404C12.6592 15.6354 12.4636 15.6717 12.2819 15.747C12.1001 15.8223 11.9362 15.9349 11.8007 16.0775C11.6652 16.2202 11.5612 16.3897 11.4953 16.575L11.1578 17.5238C11.0605 17.7973 10.8809 18.034 10.6437 18.2014C10.4065 18.3688 10.1233 18.4586 9.83296 18.4586C9.54264 18.4586 9.25943 18.3688 9.02222 18.2014C8.785 18.034 8.60541 17.7973 8.50808 17.5238L8.17058 16.575C8.10465 16.3896 8.00053 16.2201 7.86497 16.0775C7.72941 15.9348 7.56542 15.8222 7.38361 15.7469C7.20179 15.6717 7.0062 15.6354 6.80948 15.6404C6.61276 15.6455 6.41929 15.6918 6.24158 15.7763L5.33333 16.2083C5.07092 16.3341 4.77593 16.3754 4.48907 16.3264C4.20221 16.2774 3.93763 16.1406 3.73185 15.9348C3.52608 15.729 3.38925 15.4644 3.34025 15.1776C3.29126 14.8907 3.33252 14.5957 3.45833 14.3333L3.89033 13.4235C3.97485 13.2459 4.02113 13.0525 4.02618 12.8558C4.03123 12.6591 3.99494 12.4636 3.91965 12.2818C3.84436 12.1001 3.73175 11.9362 3.58911 11.8007C3.44646 11.6652 3.27697 11.5611 3.09158 11.4953L2.14283 11.1578C1.86905 11.0606 1.63209 10.881 1.46451 10.6437C1.29693 10.4064 1.20695 10.1231 1.20695 9.83255C1.20695 9.54203 1.29693 9.25865 1.46451 9.02135C1.63209 8.78405 1.86905 8.60447 2.14283 8.5073L3.09158 8.1698C3.27677 8.10392 3.44609 7.99993 3.58859 7.86455C3.73109 7.72917 3.84362 7.5654 3.91889 7.38382C3.99416 7.20225 4.03051 7.0069 4.02559 6.81041C4.02068 6.61391 3.9746 6.42063 3.89033 6.24304L3.45833 5.33329C3.33252 5.07088 3.29126 4.77589 3.34025 4.48903C3.38925 4.20217 3.52608 3.93759 3.73185 3.73182C3.93763 3.52604 4.20221 3.38921 4.48907 3.34022C4.77593 3.29122 5.07092 3.33248 5.33333 3.45829L6.24308 3.89029C6.42062 3.9746 6.61386 4.02075 6.81034 4.02578C7.00681 4.0308 7.20216 3.99459 7.38378 3.91946C7.56539 3.84434 7.72925 3.73199 7.86477 3.58964C8.00029 3.4473 8.10447 3.27813 8.17058 3.09304L8.50808 2.14429C8.60541 1.87077 8.785 1.63408 9.02222 1.4667C9.25943 1.29933 9.54264 1.20947 9.83296 1.20947C10.1233 1.20947 10.4065 1.29933 10.6437 1.4667C10.8809 1.63408 11.0605 1.87077 11.1578 2.14429L11.4953 3.09304C11.5612 3.27843 11.6652 3.44793 11.8007 3.59057C11.9362 3.73321 12.1001 3.84582 12.2819 3.92111C12.4636 3.9964 12.6592 4.03269 12.8558 4.02764C13.0525 4.02259 13.2459 3.97631 13.4236 3.89179L14.3333 3.45829C14.5957 3.33297 14.8906 3.29208 15.1772 3.34125C15.4638 3.39043 15.7281 3.52725 15.9337 3.73288C16.1394 3.93851 16.2762 4.20283 16.3254 4.48945C16.3745 4.77607 16.3337 5.07088 16.2083 5.33329L15.7748 6.24304Z" stroke="currentColor" stroke-linecap="round" stroke-linejoin="round"/>
<path d="M9.83258 13.209C11.6965 13.209 13.2076 11.698 13.2076 9.83405C13.2076 7.97008 11.6965 6.45905 9.83258 6.45905C7.96862 6.45905 6.45758 7.97008 6.45758 9.83405C6.45758 11.698 7.96862 13.209 9.83258 13.209Z" stroke="currentColor" opacity="0.4" stroke-linecap="round" stroke-linejoin="round"/>
</svg>
