<svg width="1em" height="1em" viewBox="0 0 18 20" fill="none" xmlns="http://www.w3.org/2000/svg">
    <path d="M9 10.4243C11.8116 10.4243 14.0909 8.14498 14.0909 5.33334C14.0909 2.52171 11.8116 0.242432 9 0.242432C6.18836 0.242432 3.90909 2.52171 3.90909 5.33334V5.33323C3.91183 8.1437 6.18942 10.4214 8.99989 10.4243L9 10.4243ZM9 8.72728C7.12558 8.72728 5.60606 7.20777 5.60606 5.33334V5.33334C5.60747 4.90533 5.6922 4.48169 5.85551 4.08607V4.08607C5.87923 4.02908 5.92615 3.98493 5.98448 3.96473C6.04332 3.945 6.10786 3.95214 6.16097 3.98425V3.98425C7.42345 4.74101 8.86784 5.14045 10.3398 5.13989C10.9393 5.13949 11.5369 5.07233 12.1216 4.93964C12.2356 4.91499 12.3481 4.98745 12.3727 5.1015C12.3742 5.10829 12.3753 5.11516 12.3761 5.12207C12.3859 5.19211 12.3919 5.26265 12.3939 5.33334V5.33334C12.3939 7.20777 10.8744 8.72728 9 8.72728H9Z" fill="#595959"/>
    <path d="M9 11.2727C4.55038 11.2779 0.944534 14.8837 0.939392 19.3333C0.939392 19.5676 1.12933 19.7576 1.36363 19.7576H16.6364C16.8707 19.7576 17.0606 19.5676 17.0606 19.3333V19.3334C17.0555 14.8838 13.4497 11.2779 9.00008 11.2727L9 11.2727Z" fill="#595959"/>
</svg>
