<svg width="1em" height="1em" viewBox="0 0 19 19" fill="none" xmlns="http://www.w3.org/2000/svg">
<path d="M9.83333 9.08337V11.3334" stroke="currentColor" opacity="0.4" stroke-linecap="round" stroke-linejoin="round"/>
<path d="M11.3333 18.4584L11.7083 13.9584H13.5833V11.3334C13.5833 10.3388 13.1882 9.38499 12.485 8.68172C11.7817 7.97846 10.8279 7.58337 9.83333 7.58337C8.83877 7.58337 7.88494 7.97846 7.18168 8.68172C6.47842 9.38499 6.08333 10.3388 6.08333 11.3334V13.9584H7.95833L8.33333 18.4584H11.3333Z" stroke="currentColor" stroke-linecap="round" stroke-linejoin="round"/>
<path d="M7.57133 2.50058C7.97784 2.92219 8.46517 3.25751 9.00421 3.4865C9.54325 3.71549 10.1229 3.83345 10.7086 3.83333C11.3017 3.83347 11.8886 3.71276 12.4336 3.47858" stroke="currentColor" opacity="0.4" stroke-linecap="round" stroke-linejoin="round"/>
<path d="M9.83333 6.45834C11.2831 6.45834 12.4583 5.28309 12.4583 3.83334C12.4583 2.3836 11.2831 1.20834 9.83333 1.20834C8.38358 1.20834 7.20833 2.3836 7.20833 3.83334C7.20833 5.28309 8.38358 6.45834 9.83333 6.45834Z" stroke="currentColor" stroke-linecap="round" stroke-linejoin="round"/>
</svg>
