<svg width="1em" height="1em" viewBox="0 0 19 19" fill="none" xmlns="http://www.w3.org/2000/svg">
<path d="M18.4583 7.95831C18.4583 8.15723 18.3793 8.34799 18.2387 8.48864C18.098 8.6293 17.9072 8.70831 17.7083 8.70831H1.95833C1.75942 8.70831 1.56865 8.6293 1.428 8.48864C1.28735 8.34799 1.20833 8.15723 1.20833 7.95831V2.70831C1.20833 2.5094 1.28735 2.31864 1.428 2.17798C1.56865 2.03733 1.75942 1.95831 1.95833 1.95831H17.7083C17.9072 1.95831 18.098 2.03733 18.2387 2.17798C18.3793 2.31864 18.4583 2.5094 18.4583 2.70831V7.95831Z" stroke="currentColor" stroke-linecap="round" stroke-linejoin="round"/>
<path d="M18.4583 16.9583C18.4583 17.1572 18.3793 17.348 18.2387 17.4886C18.098 17.6293 17.9072 17.7083 17.7083 17.7083H1.95833C1.75942 17.7083 1.56865 17.6293 1.428 17.4886C1.28735 17.348 1.20833 17.1572 1.20833 16.9583V11.7083C1.20833 11.5094 1.28735 11.3186 1.428 11.178C1.56865 11.0373 1.75942 10.9583 1.95833 10.9583H17.7083C17.9072 10.9583 18.098 11.0373 18.2387 11.178C18.3793 11.3186 18.4583 11.5094 18.4583 11.7083V16.9583Z" stroke="currentColor" opacity="0.4" stroke-linecap="round" stroke-linejoin="round"/>
</svg>
