<?xml version="1.0" encoding="UTF-8" ?>
<!DOCTYPE svg PUBLIC "-//W3C//DTD SVG 1.1//EN" "http://www.w3.org/Graphics/SVG/1.1/DTD/svg11.dtd">
<svg width="600pt" height="600pt" viewBox="0 0 600 600" version="1.1" xmlns="http://www.w3.org/2000/svg">
<g id="#000000ff">
</g>
<g id="#c0392bff">
<path fill="#c0392b" opacity="1.00" d=" M 120.33 165.26 C 160.85 124.88 201.17 84.29 241.76 43.97 C 242.21 71.66 241.82 99.36 241.95 127.05 C 241.81 134.63 242.79 142.56 239.72 149.72 C 235.35 160.79 223.93 168.62 212.00 168.45 C 187.01 168.48 162.02 168.45 137.03 168.45 C 130.59 168.43 124.13 168.64 117.70 168.22 C 118.55 167.21 119.40 166.21 120.33 165.26 Z" />
<path fill="#c0392b" opacity="1.00" d=" M 82.00 384.92 C 80.94 383.05 81.40 379.95 83.80 379.53 C 95.12 379.39 106.44 379.60 117.76 379.43 C 239.87 379.37 361.98 379.36 484.09 379.43 C 495.47 379.61 506.86 379.36 518.24 379.56 C 520.49 380.18 520.83 383.05 519.84 384.90 C 510.87 408.92 501.81 432.92 492.82 456.94 C 489.97 463.95 487.95 471.32 484.37 478.00 C 479.10 479.88 473.47 479.43 467.99 479.40 C 353.31 479.40 238.62 479.41 123.93 479.40 C 121.56 479.44 119.29 478.61 117.36 477.27 C 115.57 475.16 114.84 472.44 113.86 469.92 C 103.28 441.58 92.57 413.27 82.00 384.92 M 238.77 400.20 C 238.76 420.12 238.76 440.04 238.77 459.95 C 244.15 459.96 249.53 459.96 254.91 459.95 C 254.91 453.35 254.90 446.75 254.91 440.15 C 261.26 440.17 268.09 440.13 273.63 436.57 C 282.29 431.17 284.09 418.79 280.10 409.97 C 277.05 403.61 269.78 400.76 263.12 400.39 C 255.01 399.99 246.88 400.29 238.77 400.20 M 291.65 400.20 C 291.63 420.12 291.64 440.03 291.64 459.95 C 302.15 459.52 312.95 461.17 323.20 458.24 C 332.33 455.66 339.45 447.75 341.32 438.49 C 343.22 429.00 342.94 418.08 336.82 410.10 C 331.70 403.42 323.07 400.57 314.93 400.28 C 307.17 400.09 299.41 400.25 291.65 400.20 M 353.06 400.20 C 353.05 420.12 353.06 440.03 353.06 459.95 C 358.36 459.96 363.67 459.95 368.97 459.96 C 368.98 452.48 368.96 445.00 368.98 437.52 C 374.94 437.51 380.89 437.51 386.85 437.53 C 386.87 433.20 386.86 428.88 386.87 424.55 C 380.93 424.55 374.99 424.51 369.05 424.58 C 368.93 420.77 368.96 416.96 368.98 413.16 C 375.45 413.15 381.91 413.16 388.37 413.15 C 388.38 408.83 388.38 404.51 388.37 400.19 C 376.60 400.21 364.83 400.20 353.06 400.20 M 217.43 445.61 C 211.61 446.44 209.80 454.51 213.55 458.50 C 216.30 461.23 220.77 461.52 224.28 460.27 C 229.09 458.50 229.99 451.68 227.05 447.92 C 224.73 445.20 220.71 444.97 217.43 445.61 Z" />
<path fill="#c0392b" opacity="1.00" d=" M 254.92 413.21 C 258.15 413.41 262.24 412.51 264.61 415.33 C 266.91 418.72 265.77 424.20 261.99 426.05 C 259.81 427.17 257.28 426.88 254.92 427.02 C 254.90 422.42 254.90 417.82 254.92 413.21 Z" />
<path fill="#c0392b" opacity="1.00" d=" M 307.83 413.20 C 312.29 413.29 317.41 412.79 321.04 415.95 C 325.02 419.38 325.59 425.06 325.57 429.99 C 325.45 434.87 324.67 440.42 320.75 443.79 C 317.16 446.83 312.16 446.81 307.72 446.62 C 307.89 435.48 307.68 424.34 307.83 413.20 Z" />
</g>
<g id="#e74c3cff">
<path fill="#e74c3c" opacity="1.00" d=" M 241.76 43.97 C 312.51 44.04 383.27 43.97 454.02 44.01 C 463.11 43.88 472.10 48.15 477.74 55.27 C 482.50 61.03 484.68 68.60 484.39 76.01 C 484.29 162.98 484.54 249.95 484.26 336.91 C 483.86 351.07 484.18 365.26 484.09 379.43 C 361.98 379.36 239.87 379.37 117.76 379.43 C 117.66 365.18 118.00 350.93 117.58 336.69 C 117.26 280.54 117.58 224.37 117.42 168.21 L 117.70 168.22 C 124.13 168.64 130.59 168.43 137.03 168.45 C 162.02 168.45 187.01 168.48 212.00 168.45 C 223.93 168.62 235.35 160.79 239.72 149.72 C 242.79 142.56 241.81 134.63 241.95 127.05 C 241.82 99.36 242.21 71.66 241.76 43.97 M 199.42 221.59 C 195.33 222.06 190.73 225.41 191.54 229.99 C 192.72 234.94 198.46 236.71 202.99 236.42 C 267.99 236.39 332.99 236.41 397.99 236.41 C 401.54 236.49 405.44 235.52 407.69 232.56 C 409.36 230.52 409.36 227.39 407.74 225.33 C 405.53 222.33 401.59 221.30 398.02 221.40 C 353.68 221.40 309.35 221.40 265.01 221.40 C 243.15 221.53 221.26 221.15 199.42 221.59 M 198.52 266.67 C 194.58 267.29 190.26 270.66 191.16 275.07 C 192.29 279.72 197.64 281.61 201.97 281.41 C 267.29 281.40 332.61 281.42 397.93 281.40 C 401.42 281.45 405.25 280.38 407.38 277.41 C 408.90 275.45 408.93 272.53 407.47 270.53 C 405.39 267.53 401.55 266.36 398.04 266.41 C 334.34 266.39 270.64 266.42 206.95 266.40 C 204.14 266.42 201.30 266.25 198.52 266.67 M 197.15 312.24 C 193.96 313.31 190.89 316.33 191.51 319.96 C 192.51 324.57 197.65 326.64 201.95 326.51 C 267.32 326.53 332.70 326.51 398.08 326.52 C 402.04 326.64 406.59 325.23 408.44 321.42 C 409.76 318.71 408.46 315.42 406.09 313.77 C 402.68 311.04 398.08 311.53 394.00 311.50 C 331.64 311.52 269.28 311.52 206.92 311.51 C 203.67 311.57 200.30 311.19 197.15 312.24 Z" />
<path fill="#e74c3c" opacity="1.00" d=" M 117.36 477.27 C 119.29 478.61 121.56 479.44 123.93 479.40 C 238.62 479.41 353.31 479.40 467.99 479.40 C 473.47 479.43 479.10 479.88 484.37 478.00 C 484.32 494.65 484.51 511.31 484.27 527.95 C 483.65 542.97 470.11 555.94 455.08 555.96 C 352.70 556.05 250.31 555.98 147.92 556.00 C 135.36 556.33 123.25 547.87 119.20 536.00 C 116.88 529.93 117.53 523.34 117.45 516.99 C 117.39 503.75 117.57 490.51 117.36 477.27 Z" />
</g>
<g id="#ffffffff">
<path fill="#ffffff" opacity="1.00" d=" M 199.42 221.59 C 221.26 221.15 243.15 221.53 265.01 221.40 C 309.35 221.40 353.68 221.40 398.02 221.40 C 401.59 221.30 405.53 222.33 407.74 225.33 C 409.36 227.39 409.36 230.52 407.69 232.56 C 405.44 235.52 401.54 236.49 397.99 236.41 C 332.99 236.41 267.99 236.39 202.99 236.42 C 198.46 236.71 192.72 234.94 191.54 229.99 C 190.73 225.41 195.33 222.06 199.42 221.59 Z" />
<path fill="#ffffff" opacity="1.00" d=" M 198.52 266.67 C 201.30 266.25 204.14 266.42 206.95 266.40 C 270.64 266.42 334.34 266.39 398.04 266.41 C 401.55 266.36 405.39 267.53 407.47 270.53 C 408.93 272.53 408.90 275.45 407.38 277.41 C 405.25 280.38 401.42 281.45 397.93 281.40 C 332.61 281.42 267.29 281.40 201.97 281.41 C 197.64 281.61 192.29 279.72 191.16 275.07 C 190.26 270.66 194.58 267.29 198.52 266.67 Z" />
<path fill="#ffffff" opacity="1.00" d=" M 197.15 312.24 C 200.30 311.19 203.67 311.57 206.92 311.51 C 269.28 311.52 331.64 311.52 394.00 311.50 C 398.08 311.53 402.68 311.04 406.09 313.77 C 408.46 315.42 409.76 318.71 408.44 321.42 C 406.59 325.23 402.04 326.64 398.08 326.52 C 332.70 326.51 267.32 326.53 201.95 326.51 C 197.65 326.64 192.51 324.57 191.51 319.96 C 190.89 316.33 193.96 313.31 197.15 312.24 Z" />
<path fill="#ffffff" opacity="1.00" d=" M 238.77 400.20 C 246.88 400.29 255.01 399.99 263.12 400.39 C 269.78 400.76 277.05 403.61 280.10 409.97 C 284.09 418.79 282.29 431.17 273.63 436.57 C 268.09 440.13 261.26 440.17 254.91 440.15 C 254.90 446.75 254.91 453.35 254.91 459.95 C 249.53 459.96 244.15 459.96 238.77 459.95 C 238.76 440.04 238.76 420.12 238.77 400.20 M 254.92 413.21 C 254.90 417.82 254.90 422.42 254.92 427.02 C 257.28 426.88 259.81 427.17 261.99 426.05 C 265.77 424.20 266.91 418.72 264.61 415.33 C 262.24 412.51 258.15 413.41 254.92 413.21 Z" />
<path fill="#ffffff" opacity="1.00" d=" M 291.65 400.20 C 299.41 400.25 307.17 400.09 314.93 400.28 C 323.07 400.57 331.70 403.42 336.82 410.10 C 342.94 418.08 343.22 429.00 341.32 438.49 C 339.45 447.75 332.33 455.66 323.20 458.24 C 312.95 461.17 302.15 459.52 291.64 459.95 C 291.64 440.03 291.63 420.12 291.65 400.20 M 307.83 413.20 C 307.68 424.34 307.89 435.48 307.72 446.62 C 312.16 446.81 317.16 446.83 320.75 443.79 C 324.67 440.42 325.45 434.87 325.57 429.99 C 325.59 425.06 325.02 419.38 321.04 415.95 C 317.41 412.79 312.29 413.29 307.83 413.20 Z" />
<path fill="#ffffff" opacity="1.00" d=" M 353.06 400.20 C 364.83 400.20 376.60 400.21 388.37 400.19 C 388.38 404.51 388.38 408.83 388.37 413.15 C 381.91 413.16 375.45 413.15 368.98 413.16 C 368.96 416.96 368.93 420.77 369.05 424.58 C 374.99 424.51 380.93 424.55 386.87 424.55 C 386.86 428.88 386.87 433.20 386.85 437.53 C 380.89 437.51 374.94 437.51 368.98 437.52 C 368.96 445.00 368.98 452.48 368.97 459.96 C 363.67 459.95 358.36 459.96 353.06 459.95 C 353.06 440.03 353.05 420.12 353.06 400.20 Z" />
<path fill="#ffffff" opacity="1.00" d=" M 217.43 445.61 C 220.71 444.97 224.73 445.20 227.05 447.92 C 229.99 451.68 229.09 458.50 224.28 460.27 C 220.77 461.52 216.30 461.23 213.55 458.50 C 209.80 454.51 211.61 446.44 217.43 445.61 Z" />
</g>
<g id="#262626ff">
<path fill="#262626" opacity="1.00" d=" M 117.58 336.69 C 118.00 350.93 117.66 365.18 117.76 379.43 C 106.44 379.60 95.12 379.39 83.80 379.53 C 84.45 377.74 85.47 376.14 86.72 374.73 C 97.12 362.15 106.94 349.07 117.58 336.69 Z" />
<path fill="#262626" opacity="1.00" d=" M 484.26 336.91 C 493.14 346.69 500.91 357.45 509.36 367.61 C 512.28 371.62 516.08 375.04 518.24 379.56 C 506.86 379.36 495.47 379.61 484.09 379.43 C 484.18 365.26 483.86 351.07 484.26 336.91 Z" />
</g>
</svg>
