<?xml version="1.0" encoding="UTF-8" ?>
<!DOCTYPE svg PUBLIC "-//W3C//DTD SVG 1.1//EN" "http://www.w3.org/Graphics/SVG/1.1/DTD/svg11.dtd">
<svg width="800pt" height="600pt" viewBox="0 0 800 600" version="1.1" xmlns="http://www.w3.org/2000/svg">
<g id="#ffffffff">
<path fill="#ffffff" opacity="1.00" d=" M 281.16 234.31 C 344.59 234.15 408.01 234.27 471.44 234.26 C 469.51 243.49 467.87 252.78 466.11 262.04 C 464.94 265.18 468.90 265.41 470.95 265.96 C 487.34 268.65 503.52 272.43 519.88 275.28 C 525.47 276.29 530.97 277.93 536.68 278.06 C 538.37 269.03 539.97 259.99 541.96 251.02 C 542.62 248.16 543.01 245.25 543.07 242.32 C 541.38 239.11 538.25 237.11 535.24 235.28 C 542.43 234.18 549.73 234.65 556.97 234.80 C 556.98 297.61 556.88 360.41 557.06 423.22 C 555.12 423.23 553.19 423.20 551.26 423.19 C 547.15 423.15 543.04 423.09 538.94 423.22 C 538.86 381.53 539.18 339.83 538.82 298.15 C 485.89 297.93 432.96 298.07 380.04 298.05 C 353.39 298.12 326.74 297.85 300.10 298.17 C 299.85 327.43 300.07 356.70 300.04 385.96 C 300.03 387.55 299.75 389.14 299.00 390.56 C 294.24 394.50 294.01 403.14 300.04 405.98 C 300.16 412.84 299.81 419.71 300.20 426.57 C 302.40 427.02 305.26 426.66 306.56 428.93 C 310.94 434.94 320.06 434.83 326.15 431.60 L 326.41 431.81 C 326.42 435.51 326.04 439.19 325.97 442.90 C 311.05 442.66 296.14 442.93 281.22 442.73 C 281.06 409.15 281.16 375.57 281.14 341.99 C 281.03 332.57 281.41 323.14 280.93 313.72 C 273.85 317.87 267.00 322.48 260.36 327.30 C 261.64 330.14 264.21 332.58 264.04 335.91 C 264.13 338.89 262.21 341.59 262.47 344.57 C 266.37 363.69 270.33 382.82 274.01 401.99 C 271.09 401.98 268.17 401.93 265.25 401.83 C 262.33 401.74 259.41 401.74 256.49 401.72 C 255.67 395.49 255.56 389.22 255.17 382.96 C 255.22 378.31 254.74 373.69 254.20 369.09 C 253.52 358.47 254.77 347.78 253.38 337.21 C 253.29 335.47 253.07 333.74 252.80 332.03 C 252.66 331.00 252.53 329.97 252.42 328.94 C 252.25 328.18 251.92 326.65 251.75 325.89 C 251.47 324.95 251.17 324.01 250.87 323.09 C 250.06 320.53 249.27 317.86 249.75 315.16 C 250.53 316.44 251.32 317.74 252.01 319.08 C 252.31 320.15 252.80 321.12 253.49 322.00 C 253.87 323.22 254.22 324.44 254.58 325.68 L 255.88 325.36 C 256.51 328.78 254.56 332.19 255.54 335.55 C 257.99 334.65 255.59 331.38 256.53 329.44 C 257.60 329.92 258.67 330.40 259.75 330.90 C 259.58 332.24 259.43 333.60 259.30 334.96 C 260.08 334.41 260.85 333.86 261.63 333.32 C 260.74 331.26 259.59 329.29 257.29 328.61 C 256.62 326.24 255.72 323.93 254.30 321.91 C 254.30 320.51 253.73 319.46 252.58 318.77 C 258.27 315.57 263.38 311.48 268.99 308.17 C 274.93 305.03 277.87 298.56 280.83 292.89 C 281.47 282.85 281.00 272.71 281.05 262.63 C 281.15 253.19 281.01 243.75 281.16 234.31 M 341.96 244.03 C 327.02 245.85 312.07 247.61 297.11 249.27 C 296.00 249.50 294.37 249.79 294.11 251.11 C 293.58 254.78 294.83 258.39 294.97 262.05 C 295.11 265.19 295.60 268.31 296.44 271.35 C 294.82 274.33 292.08 276.77 291.16 280.07 C 292.14 281.63 293.86 282.36 295.50 283.02 C 295.70 282.47 296.11 281.36 296.32 280.81 C 297.01 282.66 297.67 284.53 298.31 286.41 C 318.46 284.49 338.54 281.75 358.66 279.52 C 362.34 278.91 366.16 279.13 369.70 277.79 C 368.01 265.79 367.25 253.62 365.37 241.68 C 357.51 241.67 349.79 243.54 341.96 244.03 M 384.12 253.10 C 383.74 258.72 384.05 264.35 383.97 269.97 C 384.12 276.54 383.40 283.18 384.36 289.70 C 386.19 290.06 388.07 290.00 389.94 289.99 C 411.92 289.83 433.91 290.15 455.88 289.85 C 456.03 277.59 456.12 265.31 455.85 253.06 C 431.94 252.95 408.02 252.82 384.12 253.10 Z" />
<path fill="#ffffff" opacity="1.00" d=" M 225.56 318.01 C 228.56 317.77 231.57 317.56 234.56 317.18 C 234.49 321.92 235.94 326.50 237.81 330.80 C 237.37 331.25 236.49 332.16 236.05 332.62 C 236.41 335.38 238.53 336.80 241.28 336.21 C 241.44 334.53 241.38 332.85 241.11 331.20 C 240.48 330.99 239.21 330.57 238.58 330.37 C 237.07 326.31 235.63 322.15 235.52 317.78 C 239.05 320.34 241.04 324.29 243.10 328.01 C 244.00 326.92 244.89 325.83 245.83 324.78 L 246.39 326.58 C 246.52 327.45 246.64 328.33 246.77 329.21 C 248.37 345.11 246.06 361.07 247.18 377.00 C 247.49 383.13 248.41 389.24 247.93 395.40 C 247.60 397.32 247.36 399.27 247.23 401.23 C 247.54 400.12 248.18 397.90 248.49 396.79 C 248.92 398.57 249.37 400.36 249.81 402.15 L 248.23 402.07 C 243.46 401.74 238.71 401.34 233.94 401.11 C 228.01 400.92 222.12 400.12 216.21 399.72 C 220.26 392.26 224.22 384.76 227.96 377.14 C 229.90 374.57 228.60 371.47 226.15 369.83 C 225.24 370.44 224.36 371.10 223.52 371.80 C 223.14 372.11 222.40 372.73 222.02 373.04 C 220.00 370.79 218.06 368.47 216.24 366.05 C 215.76 365.71 214.80 365.01 214.32 364.66 C 211.37 360.09 206.61 356.90 204.20 351.96 C 204.83 349.88 206.21 348.16 207.39 346.38 C 210.45 342.04 213.01 337.37 216.00 332.97 C 219.20 328.00 222.44 323.04 225.56 318.01 M 224.15 341.45 L 224.26 341.81 C 221.75 344.14 219.76 346.97 217.20 349.26 C 218.70 352.95 220.92 356.27 222.66 359.84 L 222.85 359.51 C 223.67 361.02 224.52 362.53 225.37 364.03 C 229.27 362.09 233.24 359.28 234.72 355.02 C 234.70 348.56 231.63 342.60 228.49 337.12 C 227.01 338.53 225.58 339.99 224.15 341.45 Z" />
<path fill="#ffffff" opacity="1.00" d=" M 238.22 332.11 C 238.66 332.82 238.66 332.82 238.22 332.11 Z" />
<path fill="#ffffff" opacity="1.00" d=" M 240.00 334.05 C 240.72 333.41 240.72 333.41 240.00 334.05 Z" />
<path fill="#ffffff" opacity="1.00" d=" M 248.05 358.72 C 248.41 362.81 248.55 366.91 248.65 371.02 C 248.60 372.63 248.90 374.46 247.83 375.85 C 248.18 370.14 247.16 364.41 248.05 358.72 Z" />
<path fill="#ffffff" opacity="1.00" d=" M 337.34 431.91 C 341.40 430.79 345.22 428.99 348.77 426.75 C 361.15 427.25 373.54 426.83 385.92 426.95 C 415.10 426.93 444.29 427.03 473.47 426.91 C 473.53 432.24 473.08 437.57 473.04 442.91 C 424.42 442.69 375.80 442.81 327.18 442.84 C 327.36 440.12 327.63 437.41 327.95 434.70 C 331.12 433.91 334.26 432.99 337.34 431.91 Z" />
</g>
<g id="#edf6ffff">
<path fill="#edf6ff" opacity="1.00" d=" M 551.73 96.54 C 572.55 91.53 594.83 94.74 614.03 103.97 C 632.60 113.50 648.06 129.11 656.87 148.09 C 666.39 170.80 670.14 195.50 670.89 219.97 C 670.62 240.94 667.56 261.96 660.92 281.90 C 652.83 306.46 639.52 329.14 622.82 348.83 C 620.80 351.34 618.79 353.89 616.31 355.97 C 615.92 339.00 616.25 322.02 616.12 305.05 C 615.96 300.32 616.61 295.53 615.78 290.86 C 615.53 290.54 615.03 289.90 614.77 289.58 C 616.13 282.59 615.28 275.44 615.33 268.37 C 615.33 267.93 615.33 267.06 615.33 266.62 C 615.57 259.54 615.44 252.47 615.38 245.40 C 615.39 245.10 615.41 244.51 615.43 244.21 C 615.29 244.06 615.03 243.76 614.90 243.60 C 615.91 236.58 615.37 229.47 615.33 222.40 C 615.34 221.95 615.34 221.06 615.34 220.62 C 615.50 213.30 615.54 205.98 615.39 198.66 C 615.38 198.41 615.36 197.92 615.35 197.67 C 615.62 190.51 615.22 183.33 615.66 176.17 C 622.61 176.25 629.59 176.53 636.52 175.84 C 636.85 175.85 637.52 175.88 637.85 175.89 L 637.77 175.26 C 637.64 167.99 637.84 160.71 637.60 153.44 C 637.72 153.07 637.97 152.32 638.09 151.94 L 637.06 152.11 C 629.95 152.45 622.82 152.25 615.70 152.20 C 615.39 144.64 615.57 137.07 615.54 129.51 L 615.59 129.12 C 615.26 129.12 614.59 129.10 614.26 129.09 C 607.02 128.46 599.77 128.80 592.52 128.79 C 592.21 128.77 591.59 128.72 591.28 128.70 L 591.40 129.69 C 591.49 137.12 591.62 144.55 591.24 151.97 L 590.60 152.50 C 583.30 152.07 575.99 152.36 568.70 152.18 L 567.98 152.20 C 560.81 152.31 553.65 152.27 546.48 152.21 C 546.21 152.22 545.66 152.23 545.39 152.23 C 538.15 152.30 530.92 152.31 523.69 152.18 L 523.00 152.20 C 515.56 152.33 508.12 152.21 500.69 152.31 L 500.23 152.31 L 499.57 152.98 C 493.11 160.20 486.54 167.33 479.86 174.35 C 471.82 170.14 464.67 164.48 456.99 159.69 C 471.64 150.03 485.83 139.65 499.15 128.21 C 503.70 124.06 507.72 119.32 512.70 115.65 C 523.88 106.21 537.41 99.58 551.73 96.54 Z" />
<path fill="#edf6ff" opacity="1.00" d=" M 175.63 126.62 C 198.67 110.11 227.10 103.12 255.01 101.07 C 264.68 100.95 274.34 100.77 284.01 101.06 C 338.29 104.57 390.73 122.85 438.20 148.85 C 444.33 152.52 450.85 155.63 456.53 159.99 C 428.03 179.28 398.20 196.51 368.00 212.97 C 363.75 215.17 359.28 217.06 355.63 220.22 C 333.07 220.27 310.52 220.21 287.97 220.25 C 285.21 220.03 282.33 221.66 281.62 224.43 C 281.00 227.68 281.27 231.02 281.16 234.31 C 281.01 243.75 281.15 253.19 281.05 262.63 C 274.74 268.08 269.64 274.80 265.01 281.70 C 262.93 282.02 260.86 282.39 258.78 282.74 C 254.21 274.73 243.29 270.67 234.89 274.94 C 228.27 278.57 225.83 286.93 227.93 293.94 C 227.63 295.03 227.33 296.13 227.02 297.24 C 228.61 297.06 230.20 296.89 231.78 296.65 C 231.99 298.90 231.98 301.17 231.75 303.42 C 227.05 304.62 222.18 304.80 217.43 305.71 C 213.57 306.50 210.55 309.68 209.61 313.47 C 207.62 320.53 210.70 328.17 216.00 332.97 C 213.01 337.37 210.45 342.04 207.39 346.38 C 206.21 348.16 204.83 349.88 204.20 351.96 C 206.61 356.90 211.37 360.09 214.32 364.66 C 211.62 366.30 215.07 368.57 216.24 366.05 C 218.06 368.47 220.00 370.79 222.02 373.04 C 222.40 372.73 223.14 372.11 223.52 371.80 C 224.99 373.58 226.47 375.36 227.96 377.14 C 224.22 384.76 220.26 392.26 216.21 399.72 C 222.12 400.12 228.01 400.92 233.94 401.11 C 236.07 411.37 237.93 421.74 238.35 432.24 C 232.37 427.76 227.66 421.85 222.22 416.75 C 202.93 395.71 186.89 371.87 173.02 346.97 C 170.67 342.38 168.42 337.74 165.72 333.34 C 150.11 301.42 136.51 267.72 133.10 232.03 C 132.92 225.01 131.50 218.02 132.29 210.98 C 132.82 207.02 133.04 203.03 133.36 199.06 C 136.09 178.08 144.13 157.33 158.73 141.74 C 164.09 136.41 169.15 130.65 175.63 126.62 Z" />
<path fill="#edf6ff" opacity="1.00" d=" M 477.85 176.35 C 478.00 176.20 478.32 175.89 478.47 175.73 C 485.43 176.87 492.54 176.16 499.55 176.07 L 500.66 176.03 L 502.16 176.12 C 502.34 181.14 502.30 186.18 502.10 191.20 C 496.40 187.18 490.88 182.90 485.32 178.68 C 483.19 177.01 480.37 176.96 477.85 176.35 Z" />
<path fill="#edf6ff" opacity="1.00" d=" M 504.43 176.24 C 510.45 176.34 516.49 176.41 522.50 175.83 C 522.82 175.85 523.45 175.91 523.77 175.93 C 531.00 176.51 538.28 176.41 545.51 175.92 C 545.74 175.91 546.19 175.91 546.41 175.90 C 553.42 176.46 560.47 176.43 567.49 175.91 C 567.80 175.90 568.41 175.88 568.72 175.86 C 576.01 176.41 583.39 176.70 590.64 175.60 L 591.31 176.04 C 591.62 183.38 591.41 190.73 591.36 198.08 L 591.38 198.70 C 591.57 206.18 591.45 213.67 591.36 221.16 L 591.38 221.81 C 591.54 229.30 591.46 236.79 591.37 244.28 L 591.39 244.81 C 591.52 252.30 591.47 259.79 591.38 267.28 L 591.39 267.83 C 591.52 275.31 591.48 282.80 591.37 290.28 L 591.39 290.83 C 591.75 300.07 591.19 309.31 591.18 318.55 C 589.70 314.64 589.50 310.45 588.59 306.41 C 583.18 284.51 572.62 263.94 558.14 246.67 C 558.18 242.49 558.05 238.32 557.87 234.14 C 557.37 229.58 559.39 222.39 553.62 220.54 C 547.23 219.80 540.76 220.45 534.33 220.23 C 531.49 216.88 528.44 213.70 525.12 210.81 C 518.37 205.11 512.01 198.93 504.75 193.87 C 505.21 187.99 505.13 182.10 504.43 176.24 Z" />
<path fill="#edf6ff" opacity="1.00" d=" M 234.07 305.02 C 236.46 305.77 238.58 307.18 241.02 307.82 C 240.38 310.66 239.80 313.52 239.21 316.38 C 241.82 318.31 244.57 320.15 246.66 322.68 C 245.49 323.79 244.33 324.91 243.17 326.04 C 241.32 322.53 238.97 319.31 235.99 316.68 C 235.63 316.81 234.91 317.06 234.56 317.18 C 231.57 317.56 228.56 317.77 225.56 318.01 C 228.01 313.44 230.99 309.17 234.07 305.02 Z" />
<path fill="#edf6ff" opacity="1.00" d=" M 217.20 349.26 C 219.76 346.97 221.75 344.14 224.26 341.81 C 226.66 347.56 226.55 354.32 222.85 359.51 L 222.66 359.84 C 220.92 356.27 218.70 352.95 217.20 349.26 Z" />
<path fill="#edf6ff" opacity="1.00" d=" M 587.55 357.58 C 589.10 352.59 589.26 347.25 591.27 342.39 C 591.54 348.12 591.47 353.87 591.46 359.61 C 591.46 359.87 591.46 360.40 591.46 360.66 C 591.47 367.02 591.45 373.38 591.44 379.75 C 584.32 385.30 577.40 391.13 569.75 395.95 C 572.56 390.74 576.03 385.93 578.68 380.63 C 582.50 373.32 585.22 365.49 587.55 357.58 Z" />
<path fill="#edf6ff" opacity="1.00" d=" M 266.25 440.05 C 271.18 444.37 275.49 449.35 280.39 453.71 C 290.78 462.37 302.19 469.92 314.70 475.16 C 314.85 476.73 315.00 478.30 315.16 479.87 C 297.40 474.19 281.05 465.03 265.51 454.86 C 265.52 451.65 265.49 448.45 265.41 445.25 C 265.65 443.51 265.95 441.78 266.25 440.05 Z" />
<path fill="#edf6ff" opacity="1.00" d=" M 499.24 447.24 L 499.78 447.23 C 503.29 447.20 506.81 447.30 510.34 447.32 C 515.25 447.30 520.17 447.39 525.08 447.20 C 521.68 448.42 517.67 447.43 514.61 449.59 C 507.55 454.19 500.78 459.30 493.24 463.11 C 492.81 457.94 492.89 452.76 493.17 447.59 C 495.19 447.55 497.21 447.37 499.24 447.24 Z" />
<path fill="#edf6ff" opacity="1.00" d=" M 375.36 485.46 C 413.10 480.58 448.66 465.70 482.48 448.85 C 482.50 455.53 482.50 462.22 482.50 468.90 C 477.33 471.52 472.04 473.89 466.66 476.02 L 465.80 476.19 C 465.33 474.79 464.86 473.39 464.40 472.00 C 463.82 470.33 463.25 468.67 462.53 467.07 C 461.91 465.47 459.92 463.92 458.74 465.92 C 457.57 467.69 456.96 469.74 456.30 471.75 C 455.79 473.18 455.20 474.59 454.59 475.99 C 453.79 477.64 453.17 479.37 452.63 481.13 L 452.62 481.13 C 437.93 484.85 423.15 488.51 408.01 489.87 C 396.09 491.58 384.04 491.04 372.04 491.04 C 359.32 490.32 346.61 488.56 334.22 485.56 C 334.30 484.86 334.46 483.47 334.54 482.77 C 342.35 483.92 350.06 485.92 357.99 486.00 C 363.78 486.02 369.60 486.22 375.36 485.46 Z" />
</g>
<g id="#54607cff">
<path fill="#54607c" opacity="1.00" d=" M 591.28 128.70 C 591.59 128.72 592.21 128.77 592.52 128.79 C 596.28 132.40 599.83 136.23 603.73 139.69 C 607.05 135.98 610.53 132.41 614.26 129.09 C 614.59 129.10 615.26 129.12 615.59 129.12 L 615.54 129.51 C 611.41 132.86 608.10 137.03 604.54 140.95 C 612.00 147.64 617.49 156.24 625.46 162.42 C 625.67 162.46 626.10 162.55 626.31 162.59 C 630.08 159.30 633.31 155.43 637.06 152.11 L 638.09 151.94 C 637.97 152.32 637.72 153.07 637.60 153.44 C 634.00 157.11 630.31 160.70 626.92 164.57 C 630.80 167.85 634.30 171.56 637.77 175.26 L 637.85 175.89 C 637.52 175.88 636.85 175.85 636.52 175.84 C 633.29 171.94 629.44 168.65 625.72 165.25 C 618.60 172.43 610.96 179.11 604.57 187.00 C 608.31 190.41 611.53 194.34 615.35 197.67 C 615.36 197.92 615.38 198.41 615.39 198.66 C 611.26 201.91 607.99 206.04 604.58 209.98 C 608.34 213.35 611.49 217.33 615.34 220.62 C 615.34 221.06 615.34 221.95 615.33 222.40 C 611.01 225.28 607.69 229.39 604.65 233.55 C 608.33 236.62 611.42 240.31 614.90 243.60 C 615.03 243.76 615.29 244.06 615.43 244.21 C 615.41 244.51 615.39 245.10 615.38 245.40 C 611.01 248.24 607.66 252.36 604.65 256.56 C 608.51 259.59 611.41 263.65 615.33 266.62 C 615.33 267.06 615.33 267.93 615.33 268.37 C 611.01 271.14 608.11 275.46 604.59 279.09 C 607.96 282.61 611.40 286.07 614.77 289.58 C 615.03 289.90 615.53 290.54 615.78 290.86 C 615.56 291.04 615.10 291.39 614.87 291.57 C 610.86 294.48 607.92 298.52 604.58 302.12 C 607.98 305.56 611.37 309.02 614.72 312.51 C 614.86 313.02 615.14 314.03 615.29 314.53 C 611.50 317.99 607.59 321.54 604.93 325.95 C 608.37 329.47 611.71 333.10 615.24 336.54 L 615.82 337.09 L 615.27 337.55 C 611.23 340.66 608.24 344.83 604.68 348.44 C 608.04 352.26 611.60 355.90 615.18 359.52 L 615.80 360.12 L 615.25 360.59 C 611.19 363.85 607.93 367.93 604.59 371.89 C 608.39 375.17 611.61 379.04 615.19 382.56 L 615.68 383.09 L 615.25 383.49 C 611.47 386.92 607.60 390.52 604.96 394.92 C 608.25 398.55 611.90 401.87 615.03 405.66 C 615.22 405.94 615.59 406.50 615.77 406.79 L 614.80 407.49 C 610.74 410.31 607.93 414.45 604.57 417.99 C 608.23 421.40 611.45 425.25 615.15 428.63 L 615.80 429.24 L 615.28 429.69 C 611.25 433.00 608.03 437.12 604.59 440.99 C 608.13 444.43 611.57 447.98 614.91 451.61 C 615.13 451.91 615.56 452.49 615.77 452.79 L 614.74 453.54 C 610.74 456.37 607.88 460.43 604.60 464.01 C 608.20 467.39 611.37 471.21 615.05 474.52 L 615.74 475.15 L 615.03 475.78 C 611.16 479.12 608.02 483.18 604.60 486.97 C 608.05 490.34 611.41 493.83 614.70 497.37 C 614.76 497.75 614.90 498.50 614.97 498.87 L 614.42 498.84 C 611.09 494.80 607.12 491.40 603.24 487.92 C 599.68 491.56 596.13 495.20 592.63 498.89 L 591.44 498.96 C 591.53 498.60 591.72 497.89 591.81 497.54 C 595.29 493.85 599.06 490.41 602.20 486.41 C 598.89 483.14 595.65 479.81 592.20 476.70 C 591.97 476.47 591.52 476.02 591.30 475.79 L 591.33 475.21 C 594.92 471.26 598.92 467.68 602.18 463.43 C 598.57 459.87 594.97 456.31 591.39 452.72 L 591.38 452.12 C 594.97 448.20 598.86 444.55 602.21 440.42 C 598.63 436.82 595.00 433.29 591.39 429.72 L 591.37 429.12 C 594.92 425.36 598.67 421.77 601.99 417.81 C 599.30 413.84 595.28 411.07 592.20 407.44 C 592.12 407.09 591.96 406.37 591.89 406.01 C 594.51 401.51 599.06 398.43 602.25 394.30 C 598.74 390.67 595.14 387.13 591.45 383.68 C 591.45 383.42 591.45 382.89 591.45 382.63 C 595.16 378.98 598.83 375.27 602.21 371.30 C 598.68 367.70 595.09 364.15 591.46 360.66 C 591.46 360.40 591.46 359.87 591.46 359.61 C 595.11 355.90 598.80 352.21 602.25 348.30 C 598.74 344.65 595.10 341.15 591.48 337.63 C 591.48 337.37 591.49 336.85 591.49 336.59 C 594.99 333.05 598.61 329.60 601.81 325.78 C 599.84 321.05 593.81 318.80 591.89 314.00 C 591.99 312.41 593.25 311.36 594.23 310.25 C 596.87 307.47 599.56 304.73 602.23 301.96 C 598.84 298.02 594.94 294.60 591.39 290.83 L 591.37 290.28 C 594.35 287.28 597.23 284.18 600.20 281.18 C 600.93 280.27 602.67 278.95 601.25 277.81 C 598.15 274.31 594.50 271.33 591.39 267.83 L 591.38 267.28 C 595.03 263.53 598.57 259.68 602.23 255.93 C 598.83 252.01 594.91 248.60 591.39 244.81 L 591.37 244.28 C 594.91 240.52 598.73 237.01 601.98 233.01 C 599.07 228.74 594.71 225.74 591.38 221.81 L 591.36 221.16 C 594.94 217.31 598.49 213.44 602.23 209.75 C 598.89 205.80 595.04 202.34 591.38 198.70 L 591.36 198.08 C 594.98 194.18 598.90 190.54 602.23 186.37 C 598.43 183.09 595.43 178.93 591.31 176.04 L 590.64 175.60 C 587.07 172.24 583.82 168.50 579.84 165.61 C 575.71 168.42 572.72 172.78 568.72 175.86 C 568.41 175.88 567.80 175.90 567.49 175.91 C 564.49 171.98 560.75 168.67 556.88 165.63 C 552.90 168.37 549.78 172.39 546.41 175.90 C 546.19 175.91 545.74 175.91 545.51 175.92 C 542.25 171.91 538.47 168.35 534.31 165.30 C 531.12 169.16 527.37 172.48 523.77 175.93 C 523.45 175.91 522.82 175.85 522.50 175.83 C 519.36 171.87 515.43 168.68 511.76 165.25 C 508.12 168.90 504.51 172.60 500.66 176.03 L 499.55 176.07 C 503.12 171.95 507.16 168.26 510.61 164.03 C 507.05 160.23 503.23 156.69 499.57 152.98 L 500.23 152.31 L 500.69 152.31 C 504.53 155.78 508.26 159.39 511.91 163.07 C 515.68 159.52 519.20 155.71 523.00 152.20 L 523.69 152.18 C 527.29 155.94 531.18 159.40 534.92 163.01 C 538.54 159.55 542.17 156.09 545.39 152.23 C 545.66 152.23 546.21 152.22 546.48 152.21 C 549.25 156.46 553.53 159.34 556.91 163.06 C 560.68 159.53 564.18 155.71 567.98 152.20 L 568.70 152.18 C 572.36 155.79 575.92 159.53 579.89 162.79 C 583.84 159.78 586.89 155.79 590.60 152.50 L 591.24 151.97 C 595.05 148.50 598.55 144.67 601.96 140.81 C 599.19 136.50 594.78 133.52 591.40 129.69 L 591.28 128.70 M 592.12 152.87 C 595.96 155.87 599.10 159.72 602.87 162.74 C 606.92 159.69 610.31 155.64 613.93 152.03 C 610.72 148.42 606.84 145.49 603.57 141.94 C 599.51 145.32 596.21 149.52 592.12 152.87 M 512.96 164.60 C 516.79 167.49 519.75 171.28 523.15 174.61 C 527.34 171.85 530.11 167.57 533.61 164.07 C 530.02 160.85 527.09 156.46 522.95 154.11 C 519.53 157.51 516.14 160.97 512.96 164.60 M 558.23 164.24 L 558.32 164.77 C 561.80 167.85 564.92 171.28 568.14 174.63 C 572.31 171.83 575.15 167.61 578.60 164.04 C 575.00 160.79 572.09 156.56 567.95 154.05 C 564.69 157.43 561.33 160.73 558.23 164.24 M 580.90 164.63 C 584.68 167.62 587.87 171.23 591.22 174.67 C 595.28 171.71 598.31 167.66 601.65 163.97 C 598.32 160.57 594.87 157.28 591.54 153.88 C 587.55 156.97 584.32 160.94 580.90 164.63 M 603.97 164.63 C 607.81 167.51 610.79 171.28 614.19 174.64 C 618.32 171.80 621.16 167.59 624.62 164.05 C 621.06 160.75 618.08 156.74 614.05 154.00 C 610.60 157.44 607.15 160.93 603.97 164.63 M 535.91 164.60 C 539.37 167.40 542.48 170.60 545.35 174.00 C 549.81 171.98 552.18 167.26 555.68 164.02 C 552.43 160.70 549.12 157.45 545.78 154.24 C 542.48 157.69 539.02 160.98 535.91 164.60 M 592.12 175.28 C 596.59 178.09 599.77 182.36 603.78 185.72 C 606.81 182.13 610.12 178.78 613.80 175.84 C 610.47 171.96 606.43 168.81 602.78 165.26 C 599.27 168.66 596.03 172.33 592.12 175.28 M 593.02 198.38 C 596.68 201.74 600.08 205.37 603.76 208.71 C 606.84 204.83 610.68 201.69 614.05 198.08 C 610.74 194.50 606.86 191.50 603.56 187.92 C 599.80 191.16 596.51 194.87 593.02 198.38 M 592.91 221.36 C 596.41 224.99 600.04 228.49 603.70 231.98 C 606.95 228.29 610.41 224.80 614.18 221.64 C 611.19 217.56 606.99 214.63 603.59 210.93 C 599.80 214.16 596.48 217.89 592.91 221.36 M 603.28 234.12 C 599.94 237.65 596.48 241.05 593.02 244.46 C 596.47 248.04 600.09 251.46 603.67 254.92 C 606.89 251.14 610.67 247.92 614.10 244.35 C 610.66 240.76 606.85 237.57 603.28 234.12 M 593.02 267.40 C 596.52 270.90 599.84 274.73 603.74 277.75 C 607.13 274.33 610.46 270.84 614.08 267.65 C 610.98 263.73 606.93 260.75 603.52 257.13 C 599.93 260.45 596.54 264.00 593.02 267.40 M 603.27 280.13 C 599.94 283.64 596.52 287.07 593.03 290.43 C 596.45 294.07 600.13 297.47 603.70 300.97 C 606.63 297.03 611.07 294.18 613.79 290.26 C 610.70 286.48 606.71 283.56 603.27 280.13 M 603.31 303.12 C 600.03 306.89 595.87 309.89 592.99 313.99 C 595.56 317.04 598.82 319.45 601.49 322.44 C 602.27 323.08 603.63 324.94 604.60 323.48 C 607.57 319.88 611.45 317.17 614.26 313.45 C 610.68 309.93 607.01 306.50 603.31 303.12 M 593.07 337.23 C 596.58 340.33 599.68 343.87 603.21 346.94 L 604.00 346.97 C 607.30 343.60 610.63 340.24 614.07 336.99 C 610.87 333.33 606.98 330.39 603.68 326.83 C 599.69 329.78 596.53 333.70 593.07 337.23 M 603.04 350.05 C 599.57 353.41 595.97 356.70 593.04 360.57 C 597.08 363.23 599.77 367.79 603.94 370.05 C 607.26 366.63 610.65 363.28 614.13 360.02 C 610.63 356.55 607.22 352.50 603.04 350.05 M 603.08 373.10 C 599.54 376.23 596.40 379.78 593.09 383.15 C 596.77 386.33 599.78 390.60 603.91 393.06 C 607.23 389.65 610.60 386.29 614.05 383.01 C 611.56 380.13 608.66 377.67 605.92 375.06 C 604.99 374.41 604.32 373.09 603.08 373.10 M 603.08 396.00 C 599.54 399.36 596.06 402.82 592.89 406.53 C 596.78 409.64 599.99 413.49 603.76 416.73 C 606.94 413.03 610.35 409.52 614.22 406.53 C 611.11 402.50 607.24 398.81 603.08 396.00 M 593.05 429.62 C 596.86 432.73 600.04 436.50 603.75 439.73 C 606.89 435.94 610.58 432.67 614.05 429.20 C 610.78 425.54 606.89 422.53 603.54 418.96 C 599.85 422.30 596.30 425.84 593.05 429.62 M 592.99 452.62 C 596.85 455.71 600.04 459.51 603.77 462.75 C 606.90 459.04 610.34 455.60 614.12 452.56 C 611.18 448.48 606.86 445.72 603.59 441.94 C 599.77 445.20 596.32 448.87 592.99 452.62 M 593.04 475.60 C 596.84 478.74 600.04 482.50 603.75 485.73 C 606.90 481.95 610.55 478.66 614.05 475.21 C 610.81 471.55 606.90 468.57 603.57 464.99 C 599.80 468.26 596.34 471.87 593.04 475.60 Z" />
</g>
<g id="#b1b6c3ff">
<path fill="#b1b6c3" opacity="1.00" d=" M 592.52 128.79 C 599.77 128.80 607.02 128.46 614.26 129.09 C 610.53 132.41 607.05 135.98 603.73 139.69 C 599.83 136.23 596.28 132.40 592.52 128.79 Z" />
<path fill="#b1b6c3" opacity="1.00" d=" M 591.40 129.69 C 594.78 133.52 599.19 136.50 601.96 140.81 C 598.55 144.67 595.05 148.50 591.24 151.97 C 591.62 144.55 591.49 137.12 591.40 129.69 Z" />
<path fill="#b1b6c3" opacity="1.00" d=" M 604.54 140.95 C 608.10 137.03 611.41 132.86 615.54 129.51 C 615.57 137.07 615.39 144.64 615.70 152.20 C 622.82 152.25 629.95 152.45 637.06 152.11 C 633.31 155.43 630.08 159.30 626.31 162.59 C 626.10 162.55 625.67 162.46 625.46 162.42 C 617.49 156.24 612.00 147.64 604.54 140.95 Z" />
<path fill="#b1b6c3" opacity="1.00" d=" M 592.12 152.87 C 596.21 149.52 599.51 145.32 603.57 141.94 C 606.84 145.49 610.72 148.42 613.93 152.03 C 610.31 155.64 606.92 159.69 602.87 162.74 C 599.10 159.72 595.96 155.87 592.12 152.87 Z" />
<path fill="#b1b6c3" opacity="1.00" d=" M 500.69 152.31 C 508.12 152.21 515.56 152.33 523.00 152.20 C 519.20 155.71 515.68 159.52 511.91 163.07 C 508.26 159.39 504.53 155.78 500.69 152.31 Z" />
<path fill="#b1b6c3" opacity="1.00" d=" M 523.69 152.18 C 530.92 152.31 538.15 152.30 545.39 152.23 C 542.17 156.09 538.54 159.55 534.92 163.01 C 531.18 159.40 527.29 155.94 523.69 152.18 Z" />
<path fill="#b1b6c3" opacity="1.00" d=" M 546.48 152.21 C 553.65 152.27 560.81 152.31 567.98 152.20 C 564.18 155.71 560.68 159.53 556.91 163.06 C 553.53 159.34 549.25 156.46 546.48 152.21 Z" />
<path fill="#b1b6c3" opacity="1.00" d=" M 568.70 152.18 C 575.99 152.36 583.30 152.07 590.60 152.50 C 586.89 155.79 583.84 159.78 579.89 162.79 C 575.92 159.53 572.36 155.79 568.70 152.18 Z" />
<path fill="#b1b6c3" opacity="1.00" d=" M 479.86 174.35 C 486.54 167.33 493.11 160.20 499.57 152.98 C 503.23 156.69 507.05 160.23 510.61 164.03 C 507.16 168.26 503.12 171.95 499.55 176.07 C 492.54 176.16 485.43 176.87 478.47 175.73 C 478.82 175.38 479.51 174.69 479.86 174.35 Z" />
<path fill="#b1b6c3" opacity="1.00" d=" M 512.96 164.60 C 516.14 160.97 519.53 157.51 522.95 154.11 C 527.09 156.46 530.02 160.85 533.61 164.07 C 530.11 167.57 527.34 171.85 523.15 174.61 C 519.75 171.28 516.79 167.49 512.96 164.60 Z" />
<path fill="#b1b6c3" opacity="1.00" d=" M 558.23 164.24 C 561.33 160.73 564.69 157.43 567.95 154.05 C 572.09 156.56 575.00 160.79 578.60 164.04 C 575.15 167.61 572.31 171.83 568.14 174.63 C 564.92 171.28 561.80 167.85 558.32 164.77 L 558.23 164.24 Z" />
<path fill="#b1b6c3" opacity="1.00" d=" M 580.90 164.63 C 584.32 160.94 587.55 156.97 591.54 153.88 C 594.87 157.28 598.32 160.57 601.65 163.97 C 598.31 167.66 595.28 171.71 591.22 174.67 C 587.87 171.23 584.68 167.62 580.90 164.63 Z" />
<path fill="#b1b6c3" opacity="1.00" d=" M 603.97 164.63 C 607.15 160.93 610.60 157.44 614.05 154.00 C 618.08 156.74 621.06 160.75 624.62 164.05 C 621.16 167.59 618.32 171.80 614.19 174.64 C 610.79 171.28 607.81 167.51 603.97 164.63 Z" />
<path fill="#b1b6c3" opacity="1.00" d=" M 626.92 164.57 C 630.31 160.70 634.00 157.11 637.60 153.44 C 637.84 160.71 637.64 167.99 637.77 175.26 C 634.30 171.56 630.80 167.85 626.92 164.57 Z" />
<path fill="#b1b6c3" opacity="1.00" d=" M 535.91 164.60 C 539.02 160.98 542.48 157.69 545.78 154.24 C 549.12 157.45 552.43 160.70 555.68 164.02 C 552.18 167.26 549.81 171.98 545.35 174.00 C 542.48 170.60 539.37 167.40 535.91 164.60 Z" />
<path fill="#b1b6c3" opacity="1.00" d=" M 500.66 176.03 C 504.51 172.60 508.12 168.90 511.76 165.25 C 515.43 168.68 519.36 171.87 522.50 175.83 C 516.49 176.41 510.45 176.34 504.43 176.24 C 503.86 176.21 502.73 176.15 502.16 176.12 L 500.66 176.03 Z" />
<path fill="#b1b6c3" opacity="1.00" d=" M 523.77 175.93 C 527.37 172.48 531.12 169.16 534.31 165.30 C 538.47 168.35 542.25 171.91 545.51 175.92 C 538.28 176.41 531.00 176.51 523.77 175.93 Z" />
<path fill="#b1b6c3" opacity="1.00" d=" M 546.41 175.90 C 549.78 172.39 552.90 168.37 556.88 165.63 C 560.75 168.67 564.49 171.98 567.49 175.91 C 560.47 176.43 553.42 176.46 546.41 175.90 Z" />
<path fill="#b1b6c3" opacity="1.00" d=" M 568.72 175.86 C 572.72 172.78 575.71 168.42 579.84 165.61 C 583.82 168.50 587.07 172.24 590.64 175.60 C 583.39 176.70 576.01 176.41 568.72 175.86 Z" />
<path fill="#b1b6c3" opacity="1.00" d=" M 592.12 175.28 C 596.03 172.33 599.27 168.66 602.78 165.26 C 606.43 168.81 610.47 171.96 613.80 175.84 C 610.12 178.78 606.81 182.13 603.78 185.72 C 599.77 182.36 596.59 178.09 592.12 175.28 Z" />
<path fill="#b1b6c3" opacity="1.00" d=" M 604.57 187.00 C 610.96 179.11 618.60 172.43 625.72 165.25 C 629.44 168.65 633.29 171.94 636.52 175.84 C 629.59 176.53 622.61 176.25 615.66 176.17 C 615.22 183.33 615.62 190.51 615.35 197.67 C 611.53 194.34 608.31 190.41 604.57 187.00 Z" />
<path fill="#b1b6c3" opacity="1.00" d=" M 591.31 176.04 C 595.43 178.93 598.43 183.09 602.23 186.37 C 598.90 190.54 594.98 194.18 591.36 198.08 C 591.41 190.73 591.62 183.38 591.31 176.04 Z" />
<path fill="#b1b6c3" opacity="1.00" d=" M 593.02 198.38 C 596.51 194.87 599.80 191.16 603.56 187.92 C 606.86 191.50 610.74 194.50 614.05 198.08 C 610.68 201.69 606.84 204.83 603.76 208.71 C 600.08 205.37 596.68 201.74 593.02 198.38 Z" />
<path fill="#b1b6c3" opacity="1.00" d=" M 591.38 198.70 C 595.04 202.34 598.89 205.80 602.23 209.75 C 598.49 213.44 594.94 217.31 591.36 221.16 C 591.45 213.67 591.57 206.18 591.38 198.70 Z" />
<path fill="#b1b6c3" opacity="1.00" d=" M 604.58 209.98 C 607.99 206.04 611.26 201.91 615.39 198.66 C 615.54 205.98 615.50 213.30 615.34 220.62 C 611.49 217.33 608.34 213.35 604.58 209.98 Z" />
<path fill="#b1b6c3" opacity="1.00" d=" M 592.91 221.36 C 596.48 217.89 599.80 214.16 603.59 210.93 C 606.99 214.63 611.19 217.56 614.18 221.64 C 610.41 224.80 606.95 228.29 603.70 231.98 C 600.04 228.49 596.41 224.99 592.91 221.36 Z" />
<path fill="#b1b6c3" opacity="1.00" d=" M 591.38 221.81 C 594.71 225.74 599.07 228.74 601.98 233.01 C 598.73 237.01 594.91 240.52 591.37 244.28 C 591.46 236.79 591.54 229.30 591.38 221.81 Z" />
<path fill="#b1b6c3" opacity="1.00" d=" M 604.65 233.55 C 607.69 229.39 611.01 225.28 615.33 222.40 C 615.37 229.47 615.91 236.58 614.90 243.60 C 611.42 240.31 608.33 236.62 604.65 233.55 Z" />
<path fill="#b1b6c3" opacity="1.00" d=" M 603.28 234.12 C 606.85 237.57 610.66 240.76 614.10 244.35 C 610.67 247.92 606.89 251.14 603.67 254.92 C 600.09 251.46 596.47 248.04 593.02 244.46 C 596.48 241.05 599.94 237.65 603.28 234.12 Z" />
<path fill="#b1b6c3" opacity="1.00" d=" M 591.39 244.81 C 594.91 248.60 598.83 252.01 602.23 255.93 C 598.57 259.68 595.03 263.53 591.38 267.28 C 591.47 259.79 591.52 252.30 591.39 244.81 Z" />
<path fill="#b1b6c3" opacity="1.00" d=" M 604.65 256.56 C 607.66 252.36 611.01 248.24 615.38 245.40 C 615.44 252.47 615.57 259.54 615.33 266.62 C 611.41 263.65 608.51 259.59 604.65 256.56 Z" />
<path fill="#b1b6c3" opacity="1.00" d=" M 593.02 267.40 C 596.54 264.00 599.93 260.45 603.52 257.13 C 606.93 260.75 610.98 263.73 614.08 267.65 C 610.46 270.84 607.13 274.33 603.74 277.75 C 599.84 274.73 596.52 270.90 593.02 267.40 Z" />
<path fill="#b1b6c3" opacity="1.00" d=" M 591.39 267.83 C 594.50 271.33 598.15 274.31 601.25 277.81 C 602.67 278.95 600.93 280.27 600.20 281.18 C 597.23 284.18 594.35 287.28 591.37 290.28 C 591.48 282.80 591.52 275.31 591.39 267.83 Z" />
<path fill="#b1b6c3" opacity="1.00" d=" M 604.59 279.09 C 608.11 275.46 611.01 271.14 615.33 268.37 C 615.28 275.44 616.13 282.59 614.77 289.58 C 611.40 286.07 607.96 282.61 604.59 279.09 Z" />
<path fill="#b1b6c3" opacity="1.00" d=" M 603.27 280.13 C 606.71 283.56 610.70 286.48 613.79 290.26 C 611.07 294.18 606.63 297.03 603.70 300.97 C 600.13 297.47 596.45 294.07 593.03 290.43 C 596.52 287.07 599.94 283.64 603.27 280.13 Z" />
<path fill="#b1b6c3" opacity="1.00" d=" M 591.39 290.83 C 594.94 294.60 598.84 298.02 602.23 301.96 C 599.56 304.73 596.87 307.47 594.23 310.25 C 593.25 311.36 591.99 312.41 591.89 314.00 C 593.81 318.80 599.84 321.05 601.81 325.78 C 598.61 329.60 594.99 333.05 591.49 336.59 C 591.33 330.58 591.77 324.55 591.18 318.55 C 591.19 309.31 591.75 300.07 591.39 290.83 Z" />
<path fill="#b1b6c3" opacity="1.00" d=" M 604.58 302.12 C 607.92 298.52 610.86 294.48 614.87 291.57 C 616.06 295.26 615.39 299.18 615.55 302.99 C 615.46 306.17 616.01 309.49 614.72 312.51 C 611.37 309.02 607.98 305.56 604.58 302.12 Z" />
<path fill="#b1b6c3" opacity="1.00" d=" M 603.31 303.12 C 607.01 306.50 610.68 309.93 614.26 313.45 C 611.45 317.17 607.57 319.88 604.60 323.48 C 603.63 324.94 602.27 323.08 601.49 322.44 C 598.82 319.45 595.56 317.04 592.99 313.99 C 595.87 309.89 600.03 306.89 603.31 303.12 Z" />
<path fill="#b1b6c3" opacity="1.00" d=" M 604.93 325.95 C 607.59 321.54 611.50 317.99 615.29 314.53 C 615.68 321.85 615.76 329.23 615.24 336.54 C 611.71 333.10 608.37 329.47 604.93 325.95 Z" />
<path fill="#b1b6c3" opacity="1.00" d=" M 593.07 337.23 C 596.53 333.70 599.69 329.78 603.68 326.83 C 606.98 330.39 610.87 333.33 614.07 336.99 C 610.63 340.24 607.30 343.60 604.00 346.97 L 603.21 346.94 C 599.68 343.87 596.58 340.33 593.07 337.23 Z" />
<path fill="#b1b6c3" opacity="1.00" d=" M 591.48 337.63 C 595.10 341.15 598.74 344.65 602.25 348.30 C 598.80 352.21 595.11 355.90 591.46 359.61 C 591.47 353.87 591.54 348.12 591.27 342.39 C 591.36 340.80 591.43 339.21 591.48 337.63 Z" />
<path fill="#b1b6c3" opacity="1.00" d=" M 604.68 348.44 C 608.24 344.83 611.23 340.66 615.27 337.55 C 615.68 344.85 615.80 352.22 615.18 359.52 C 611.60 355.90 608.04 352.26 604.68 348.44 Z" />
<path fill="#b1b6c3" opacity="1.00" d=" M 603.04 350.05 C 607.22 352.50 610.63 356.55 614.13 360.02 C 610.65 363.28 607.26 366.63 603.94 370.05 C 599.77 367.79 597.08 363.23 593.04 360.57 C 595.97 356.70 599.57 353.41 603.04 350.05 Z" />
<path fill="#b1b6c3" opacity="1.00" d=" M 591.46 360.66 C 595.09 364.15 598.68 367.70 602.21 371.30 C 598.83 375.27 595.16 378.98 591.45 382.63 C 591.44 381.91 591.44 380.47 591.44 379.75 C 591.45 373.38 591.47 367.02 591.46 360.66 Z" />
<path fill="#b1b6c3" opacity="1.00" d=" M 604.59 371.89 C 607.93 367.93 611.19 363.85 615.25 360.59 C 615.60 367.90 615.70 375.26 615.19 382.56 C 611.61 379.04 608.39 375.17 604.59 371.89 Z" />
<path fill="#b1b6c3" opacity="1.00" d=" M 603.08 373.10 C 604.32 373.09 604.99 374.41 605.92 375.06 C 608.66 377.67 611.56 380.13 614.05 383.01 C 610.60 386.29 607.23 389.65 603.91 393.06 C 599.78 390.60 596.77 386.33 593.09 383.15 C 596.40 379.78 599.54 376.23 603.08 373.10 Z" />
<path fill="#b1b6c3" opacity="1.00" d=" M 591.45 383.68 C 595.14 387.13 598.74 390.67 602.25 394.30 C 599.06 398.43 594.51 401.51 591.89 406.01 C 591.96 406.37 592.12 407.09 592.20 407.44 C 595.28 411.07 599.30 413.84 601.99 417.81 C 598.67 421.77 594.92 425.36 591.37 429.12 C 591.48 421.41 591.67 413.70 591.16 406.00 C 591.64 398.57 591.47 391.12 591.45 383.68 Z" />
<path fill="#b1b6c3" opacity="1.00" d=" M 604.96 394.92 C 607.60 390.52 611.47 386.92 615.25 383.49 C 615.51 390.86 615.90 398.32 615.03 405.66 C 611.90 401.87 608.25 398.55 604.96 394.92 Z" />
<path fill="#b1b6c3" opacity="1.00" d=" M 603.08 396.00 C 607.24 398.81 611.11 402.50 614.22 406.53 C 610.35 409.52 606.94 413.03 603.76 416.73 C 599.99 413.49 596.78 409.64 592.89 406.53 C 596.06 402.82 599.54 399.36 603.08 396.00 Z" />
<path fill="#b1b6c3" opacity="1.00" d=" M 604.57 417.99 C 607.93 414.45 610.74 410.31 614.80 407.49 C 616.14 414.40 615.48 421.62 615.15 428.63 C 611.45 425.25 608.23 421.40 604.57 417.99 Z" />
<path fill="#b1b6c3" opacity="1.00" d=" M 593.05 429.62 C 596.30 425.84 599.85 422.30 603.54 418.96 C 606.89 422.53 610.78 425.54 614.05 429.20 C 610.58 432.67 606.89 435.94 603.75 439.73 C 600.04 436.50 596.86 432.73 593.05 429.62 Z" />
<path fill="#b1b6c3" opacity="1.00" d=" M 591.39 429.72 C 595.00 433.29 598.63 436.82 602.21 440.42 C 598.86 444.55 594.97 448.20 591.38 452.12 C 591.48 444.65 591.58 437.19 591.39 429.72 Z" />
<path fill="#b1b6c3" opacity="1.00" d=" M 604.59 440.99 C 608.03 437.12 611.25 433.00 615.28 429.69 C 615.40 436.98 616.06 444.39 614.91 451.61 C 611.57 447.98 608.13 444.43 604.59 440.99 Z" />
<path fill="#b1b6c3" opacity="1.00" d=" M 592.99 452.62 C 596.32 448.87 599.77 445.20 603.59 441.94 C 606.86 445.72 611.18 448.48 614.12 452.56 C 610.34 455.60 606.90 459.04 603.77 462.75 C 600.04 459.51 596.85 455.71 592.99 452.62 Z" />
<path fill="#b1b6c3" opacity="1.00" d=" M 591.39 452.72 C 594.97 456.31 598.57 459.87 602.18 463.43 C 598.92 467.68 594.92 471.26 591.33 475.21 C 591.59 467.72 591.52 460.22 591.39 452.72 Z" />
<path fill="#b1b6c3" opacity="1.00" d=" M 604.60 464.01 C 607.88 460.43 610.74 456.37 614.74 453.54 C 615.80 456.25 615.49 459.19 615.50 462.03 C 615.39 466.19 615.81 470.39 615.05 474.52 C 611.37 471.21 608.20 467.39 604.60 464.01 Z" />
<path fill="#b1b6c3" opacity="1.00" d=" M 593.04 475.60 C 596.34 471.87 599.80 468.26 603.57 464.99 C 606.90 468.57 610.81 471.55 614.05 475.21 C 610.55 478.66 606.90 481.95 603.75 485.73 C 600.04 482.50 596.84 478.74 593.04 475.60 Z" />
<path fill="#b1b6c3" opacity="1.00" d=" M 604.60 486.97 C 608.02 483.18 611.16 479.12 615.03 475.78 C 615.33 482.99 615.51 490.18 614.70 497.37 C 611.41 493.83 608.05 490.34 604.60 486.97 Z" />
<path fill="#b1b6c3" opacity="1.00" d=" M 592.20 476.70 C 595.65 479.81 598.89 483.14 602.20 486.41 C 599.06 490.41 595.29 493.85 591.81 497.54 C 591.82 490.59 591.36 483.62 592.20 476.70 Z" />
<path fill="#b1b6c3" opacity="1.00" d=" M 603.24 487.92 C 607.12 491.40 611.09 494.80 614.42 498.84 C 607.16 499.07 599.89 499.02 592.63 498.89 C 596.13 495.20 599.68 491.56 603.24 487.92 Z" />
</g>
<g id="#dcedffff">
<path fill="#dcedff" opacity="1.00" d=" M 456.53 159.99 L 456.99 159.69 C 464.67 164.48 471.82 170.14 479.86 174.35 C 479.51 174.69 478.82 175.38 478.47 175.73 C 478.32 175.89 478.00 176.20 477.85 176.35 C 480.37 176.96 483.19 177.01 485.32 178.68 C 490.88 182.90 496.40 187.18 502.10 191.20 C 502.39 195.53 502.55 199.91 503.13 204.18 C 503.40 204.15 503.96 204.08 504.23 204.05 C 504.93 200.70 504.78 197.26 504.75 193.87 C 512.01 198.93 518.37 205.11 525.12 210.81 C 528.44 213.70 531.49 216.88 534.33 220.23 C 525.47 220.32 516.61 220.11 507.75 220.33 C 508.85 217.19 506.29 215.08 504.22 213.25 C 505.93 211.87 508.35 209.71 506.82 207.31 C 505.38 204.07 499.55 205.34 499.96 209.00 C 499.70 211.09 501.80 212.00 503.16 213.05 C 503.21 213.57 503.30 214.61 503.35 215.13 C 505.73 215.84 506.94 217.72 506.58 220.20 C 503.48 219.64 500.33 219.42 497.20 219.83 C 493.15 220.35 489.07 220.28 485.01 220.25 C 441.88 220.22 398.76 220.27 355.63 220.22 C 359.28 217.06 363.75 215.17 368.00 212.97 C 398.20 196.51 428.03 179.28 456.53 159.99 Z" />
<path fill="#dcedff" opacity="1.00" d=" M 558.14 246.67 C 572.62 263.94 583.18 284.51 588.59 306.41 C 589.50 310.45 589.70 314.64 591.18 318.55 C 591.77 324.55 591.33 330.58 591.49 336.59 C 591.49 336.85 591.48 337.37 591.48 337.63 C 591.43 339.21 591.36 340.80 591.27 342.39 C 589.26 347.25 589.10 352.59 587.55 357.58 C 585.22 365.49 582.50 373.32 578.68 380.63 C 576.03 385.93 572.56 390.74 569.75 395.95 C 566.06 398.98 562.05 401.57 558.04 404.15 C 558.17 351.65 557.94 299.16 558.14 246.67 Z" />
<path fill="#dcedff" opacity="1.00" d=" M 265.01 281.70 C 269.64 274.80 274.74 268.08 281.05 262.63 C 281.00 272.71 281.47 282.85 280.83 292.89 C 277.87 298.56 274.93 305.03 268.99 308.17 C 263.38 311.48 258.27 315.57 252.58 318.77 L 252.01 319.08 C 251.32 317.74 250.53 316.44 249.75 315.16 C 250.50 313.88 251.31 312.64 252.13 311.39 C 254.42 311.19 257.31 311.96 259.07 310.07 C 260.44 307.83 261.13 305.27 262.02 302.83 C 260.82 300.01 259.86 297.04 259.78 293.95 C 260.65 291.73 260.47 289.39 259.83 287.15 C 262.36 285.98 265.15 285.10 267.14 283.06 C 266.61 282.72 265.54 282.04 265.01 281.70 Z" />
<path fill="#dcedff" opacity="1.00" d=" M 260.36 327.30 C 267.00 322.48 273.85 317.87 280.93 313.72 C 281.41 323.14 281.03 332.57 281.14 341.99 C 281.16 375.57 281.06 409.15 281.22 442.73 C 296.14 442.93 311.05 442.66 325.97 442.90 C 325.83 447.46 326.11 452.06 327.30 456.49 C 322.68 456.59 318.05 456.29 313.44 456.61 C 310.75 456.69 311.64 460.08 311.45 461.86 C 311.90 462.20 312.80 462.89 313.26 463.23 C 314.09 467.15 314.28 471.18 314.70 475.16 C 302.19 469.92 290.78 462.37 280.39 453.71 C 275.49 449.35 271.18 444.37 266.25 440.05 C 265.95 441.78 265.65 443.51 265.41 445.25 C 265.03 430.79 265.36 416.31 265.25 401.83 C 268.17 401.93 271.09 401.98 274.01 401.99 C 270.33 382.82 266.37 363.69 262.47 344.57 C 262.21 341.59 264.13 338.89 264.04 335.91 C 264.21 332.58 261.64 330.14 260.36 327.30 Z" />
<path fill="#dcedff" opacity="1.00" d=" M 327.18 442.84 C 375.80 442.81 424.42 442.69 473.04 442.91 C 473.02 444.30 473.01 445.70 473.02 447.10 C 476.18 447.20 479.35 447.26 482.53 447.29 C 482.51 447.68 482.49 448.46 482.48 448.85 C 448.66 465.70 413.10 480.58 375.36 485.46 C 369.60 486.22 363.78 486.02 357.99 486.00 C 350.06 485.92 342.35 483.92 334.54 482.77 C 335.34 476.27 336.03 469.77 336.89 463.29 C 337.45 462.93 338.55 462.20 339.11 461.84 C 338.90 460.15 339.22 458.27 338.22 456.80 C 334.94 456.21 331.59 456.56 328.28 456.49 C 327.42 452.00 326.97 447.42 327.18 442.84 Z" />
</g>
<g id="#29385bff">
<path fill="#29385b" opacity="1.00" d=" M 502.16 176.12 C 502.73 176.15 503.86 176.21 504.43 176.24 C 505.13 182.10 505.21 187.99 504.75 193.87 C 504.78 197.26 504.93 200.70 504.23 204.05 C 503.96 204.08 503.40 204.15 503.13 204.18 C 502.55 199.91 502.39 195.53 502.10 191.20 C 502.30 186.18 502.34 181.14 502.16 176.12 Z" />
<path fill="#29385b" opacity="1.00" d=" M 336.92 382.21 C 334.09 385.53 331.11 389.00 330.31 393.45 C 328.51 399.22 330.72 405.12 330.33 410.98 C 330.07 415.89 329.49 420.78 329.03 425.67 C 328.73 428.28 328.30 430.88 327.90 433.48 C 328.90 433.20 329.92 432.91 330.93 432.62 C 335.27 431.26 339.28 428.81 342.40 425.50 C 344.65 422.72 346.20 419.44 348.53 416.72 C 347.14 420.30 345.85 424.17 342.93 426.84 C 341.10 428.56 339.22 430.23 337.34 431.91 C 334.26 432.99 331.12 433.91 327.95 434.70 C 327.63 437.41 327.36 440.12 327.18 442.84 C 326.97 447.42 327.42 452.00 328.28 456.49 L 327.30 456.49 C 326.11 452.06 325.83 447.46 325.97 442.90 C 326.04 439.19 326.42 435.51 326.41 431.81 L 326.15 431.60 C 325.87 431.36 325.29 430.89 325.00 430.65 C 320.89 431.47 315.73 431.31 313.45 427.16 C 316.75 428.20 320.44 431.19 323.73 428.51 C 323.85 428.60 324.09 428.77 324.21 428.85 L 324.69 429.24 C 325.26 429.72 326.41 430.68 326.99 431.17 C 326.11 426.48 322.66 423.08 319.53 419.78 C 314.63 414.56 309.24 409.56 306.22 402.93 C 311.25 408.13 315.30 414.24 320.97 418.84 C 323.22 421.70 325.31 424.69 327.55 427.57 L 327.63 426.58 C 328.62 419.04 329.66 411.42 328.67 403.82 C 327.58 395.81 330.44 387.25 336.92 382.21 Z" />
</g>
<g id="#0a1b43ff">
<path fill="#0a1b43" opacity="1.00" d=" M 499.96 209.00 C 499.55 205.34 505.38 204.07 506.82 207.31 C 508.35 209.71 505.93 211.87 504.22 213.25 C 506.29 215.08 508.85 217.19 507.75 220.33 L 507.47 220.73 C 507.24 221.05 506.77 221.71 506.54 222.03 C 505.35 222.22 504.15 222.36 502.96 222.45 C 502.39 222.38 501.25 222.24 500.68 222.17 C 499.75 221.07 498.61 220.19 497.20 219.83 C 500.33 219.42 503.48 219.64 506.58 220.20 C 506.94 217.72 505.73 215.84 503.35 215.13 C 503.30 214.61 503.21 213.57 503.16 213.05 C 501.80 212.00 499.70 211.09 499.96 209.00 Z" />
<path fill="#0a1b43" opacity="1.00" d=" M 231.78 296.65 C 241.32 294.09 250.67 290.84 259.83 287.15 C 260.47 289.39 260.65 291.73 259.78 293.95 C 256.04 297.87 250.64 299.32 245.42 299.86 C 244.24 299.10 243.06 298.36 241.88 297.63 C 240.77 299.93 242.14 302.09 243.00 304.20 C 244.09 305.77 241.82 306.83 241.02 307.82 C 238.58 307.18 236.46 305.77 234.07 305.02 C 230.99 309.17 228.01 313.44 225.56 318.01 C 222.44 323.04 219.20 328.00 216.00 332.97 C 210.70 328.17 207.62 320.53 209.61 313.47 C 210.55 309.68 213.57 306.50 217.43 305.71 C 222.18 304.80 227.05 304.62 231.75 303.42 C 231.98 301.17 231.99 298.90 231.78 296.65 Z" />
<path fill="#0a1b43" opacity="1.00" d=" M 253.49 322.00 L 254.30 321.91 C 255.72 323.93 256.62 326.24 257.29 328.61 C 259.59 329.29 260.74 331.26 261.63 333.32 C 260.85 333.86 260.08 334.41 259.30 334.96 C 259.43 333.60 259.58 332.24 259.75 330.90 C 258.67 330.40 257.60 329.92 256.53 329.44 C 255.59 331.38 257.99 334.65 255.54 335.55 C 254.56 332.19 256.51 328.78 255.88 325.36 L 254.58 325.68 C 254.22 324.44 253.87 323.22 253.49 322.00 Z" />
<path fill="#0a1b43" opacity="1.00" d=" M 224.15 341.45 C 225.58 339.99 227.01 338.53 228.49 337.12 C 231.63 342.60 234.70 348.56 234.72 355.02 C 233.24 359.28 229.27 362.09 225.37 364.03 C 224.52 362.53 223.67 361.02 222.85 359.51 C 226.55 354.32 226.66 347.56 224.26 341.81 L 224.15 341.45 Z" />
<path fill="#0a1b43" opacity="1.00" d=" M 248.87 380.81 C 250.78 380.74 252.68 380.68 254.59 380.61 C 254.54 382.49 254.50 384.37 254.48 386.26 C 254.73 385.16 254.96 384.06 255.17 382.96 C 255.56 389.22 255.67 395.49 256.49 401.72 C 259.41 401.74 262.33 401.74 265.25 401.83 C 265.36 416.31 265.03 430.79 265.41 445.25 C 265.49 448.45 265.52 451.65 265.51 454.86 C 265.49 466.27 265.51 477.69 265.50 489.10 C 264.32 489.07 263.13 489.06 261.95 489.08 C 259.39 471.53 256.60 453.99 253.51 436.52 C 252.10 424.98 249.73 413.59 248.23 402.07 L 249.81 402.15 C 250.06 396.65 249.68 391.15 248.90 385.71 C 248.86 384.07 248.86 382.43 248.87 380.81 Z" />
</g>
<g id="#fbd91cff">
<path fill="#fbd91c" opacity="1.00" d=" M 281.62 224.43 C 282.33 221.66 285.21 220.03 287.97 220.25 C 310.52 220.21 333.07 220.27 355.63 220.22 C 398.76 220.27 441.88 220.22 485.01 220.25 C 489.07 220.28 493.15 220.35 497.20 219.83 C 490.16 222.31 484.12 226.96 477.07 229.29 C 475.57 229.03 474.08 228.75 472.60 228.47 C 472.21 230.40 471.82 232.32 471.44 234.26 C 408.01 234.27 344.59 234.15 281.16 234.31 C 281.27 231.02 281.00 227.68 281.62 224.43 M 289.09 225.04 C 287.67 226.17 287.45 228.78 289.23 229.70 C 291.15 231.23 294.30 228.95 293.36 226.72 C 293.07 224.68 290.66 224.66 289.09 225.04 M 296.09 226.21 C 294.88 228.30 297.57 231.19 299.74 229.75 C 301.70 229.00 300.91 226.60 300.84 225.04 C 299.22 225.01 297.10 224.53 296.09 226.21 M 304.05 225.11 C 304.27 226.44 303.28 228.44 304.64 229.33 C 306.21 231.28 309.83 229.41 309.06 226.97 C 308.77 224.44 305.84 224.82 304.05 225.11 Z" />
<path fill="#fbd91c" opacity="1.00" d=" M 507.75 220.33 C 516.61 220.11 525.47 220.32 534.33 220.23 C 540.76 220.45 547.23 219.80 553.62 220.54 C 559.39 222.39 557.37 229.58 557.87 234.14 C 549.62 234.16 541.37 234.14 533.12 234.07 C 525.41 228.09 515.75 225.73 507.47 220.73 L 507.75 220.33 Z" />
<path fill="#fbd91c" opacity="1.00" d=" M 481.67 230.15 C 487.80 227.08 493.84 223.38 500.68 222.17 C 501.25 222.24 502.39 222.38 502.96 222.45 C 507.66 223.45 511.77 226.07 516.20 227.84 C 520.48 229.86 524.89 231.65 529.09 233.86 C 522.40 234.58 515.66 234.06 508.94 234.24 C 499.67 234.48 490.73 231.66 481.67 230.15 Z" />
</g>
<g id="#424c5aff">
<path fill="#424c5a" opacity="1.00" d=" M 497.20 219.83 C 498.61 220.19 499.75 221.07 500.68 222.17 C 493.84 223.38 487.80 227.08 481.67 230.15 C 480.13 229.86 478.60 229.57 477.07 229.29 C 484.12 226.96 490.16 222.31 497.20 219.83 Z" />
</g>
<g id="#3b4969ff">
<path fill="#3b4969" opacity="1.00" d=" M 506.54 222.03 C 506.77 221.71 507.24 221.05 507.47 220.73 C 515.75 225.73 525.41 228.09 533.12 234.07 C 533.65 234.37 534.71 234.98 535.24 235.28 C 538.25 237.11 541.38 239.11 543.07 242.32 C 538.43 239.47 534.02 236.22 529.09 233.86 C 524.89 231.65 520.48 229.86 516.20 227.84 C 511.77 226.07 507.66 223.45 502.96 222.45 C 504.15 222.36 505.35 222.22 506.54 222.03 Z" />
<path fill="#3b4969" opacity="1.00" d=" M 234.56 317.18 C 234.91 317.06 235.63 316.81 235.99 316.68 C 235.87 316.96 235.64 317.51 235.52 317.78 C 235.63 322.15 237.07 326.31 238.58 330.37 C 239.21 330.57 240.48 330.99 241.11 331.20 C 241.38 332.85 241.44 334.53 241.28 336.21 C 238.53 336.80 236.41 335.38 236.05 332.62 C 236.49 332.16 237.37 331.25 237.81 330.80 C 235.94 326.50 234.49 321.92 234.56 317.18 M 238.22 332.11 C 238.66 332.82 238.66 332.82 238.22 332.11 M 240.00 334.05 C 236.77 332.87 239.67 337.24 240.00 334.05 C 240.72 333.41 240.72 333.41 240.00 334.05 Z" />
<path fill="#3b4969" opacity="1.00" d=" M 482.49 417.27 C 485.75 417.23 489.00 417.24 492.26 417.30 C 492.25 419.24 492.23 421.17 492.23 423.12 C 489.87 423.10 487.50 423.11 485.14 423.15 C 484.48 423.16 483.16 423.19 482.51 423.20 C 482.50 421.22 482.50 419.24 482.49 417.27 Z" />
<path fill="#3b4969" opacity="1.00" d=" M 568.03 417.23 C 571.27 417.24 574.51 417.25 577.76 417.25 C 577.75 419.27 577.74 421.29 577.74 423.32 C 574.48 423.20 571.24 423.06 567.99 423.02 C 567.99 421.09 568.01 419.16 568.03 417.23 Z" />
<path fill="#3b4969" opacity="1.00" d=" M 482.53 447.29 C 485.78 447.32 489.03 447.47 492.29 447.58 C 492.30 463.18 492.20 478.77 492.27 494.37 C 489.00 494.59 485.71 494.60 482.45 494.20 C 482.55 485.76 482.48 477.33 482.50 468.90 C 482.50 462.22 482.50 455.53 482.48 448.85 C 482.49 448.46 482.51 447.68 482.53 447.29 Z" />
<path fill="#3b4969" opacity="1.00" d=" M 576.74 447.35 C 577.00 447.34 577.51 447.31 577.77 447.30 C 577.83 463.42 577.57 479.55 577.90 495.66 C 574.70 496.03 571.47 496.06 568.26 496.05 L 568.06 495.20 C 567.91 479.40 568.05 463.60 568.00 447.80 C 570.91 447.73 573.82 447.54 576.74 447.35 Z" />
</g>
<g id="#f7b903ff">
<path fill="#f7b903" opacity="1.00" d=" M 289.09 225.04 C 290.66 224.66 293.07 224.68 293.36 226.72 C 294.30 228.95 291.15 231.23 289.23 229.70 C 287.45 228.78 287.67 226.17 289.09 225.04 Z" />
<path fill="#f7b903" opacity="1.00" d=" M 296.09 226.21 C 297.10 224.53 299.22 225.01 300.84 225.04 C 300.91 226.60 301.70 229.00 299.74 229.75 C 297.57 231.19 294.88 228.30 296.09 226.21 Z" />
<path fill="#f7b903" opacity="1.00" d=" M 304.05 225.11 C 305.84 224.82 308.77 224.44 309.06 226.97 C 309.83 229.41 306.21 231.28 304.64 229.33 C 303.28 228.44 304.27 226.44 304.05 225.11 Z" />
</g>
<g id="#f7f8f9ff">
<path fill="#f7f8f9" opacity="1.00" d=" M 472.60 228.47 C 474.08 228.75 475.57 229.03 477.07 229.29 C 478.60 229.57 480.13 229.86 481.67 230.15 C 490.73 231.66 499.67 234.48 508.94 234.24 C 515.66 234.06 522.40 234.58 529.09 233.86 C 534.02 236.22 538.43 239.47 543.07 242.32 C 543.01 245.25 542.62 248.16 541.96 251.02 C 539.97 259.99 538.37 269.03 536.68 278.06 C 530.97 277.93 525.47 276.29 519.88 275.28 C 503.52 272.43 487.34 268.65 470.95 265.96 C 468.90 265.41 464.94 265.18 466.11 262.04 C 467.87 252.78 469.51 243.49 471.44 234.26 C 471.82 232.32 472.21 230.40 472.60 228.47 Z" />
<path fill="#f7f8f9" opacity="1.00" d=" M 341.96 244.03 C 349.79 243.54 357.51 241.67 365.37 241.68 C 367.25 253.62 368.01 265.79 369.70 277.79 C 366.16 279.13 362.34 278.91 358.66 279.52 C 338.54 281.75 318.46 284.49 298.31 286.41 C 297.67 284.53 297.01 282.66 296.32 280.81 C 298.28 274.78 302.92 269.12 301.05 262.43 C 298.19 264.58 298.11 268.42 296.44 271.35 C 295.60 268.31 295.11 265.19 294.97 262.05 C 294.83 258.39 293.58 254.78 294.11 251.11 C 294.37 249.79 296.00 249.50 297.11 249.27 C 312.07 247.61 327.02 245.85 341.96 244.03 Z" />
<path fill="#f7f8f9" opacity="1.00" d=" M 384.12 253.10 C 408.02 252.82 431.94 252.95 455.85 253.06 C 456.12 265.31 456.03 277.59 455.88 289.85 C 433.91 290.15 411.92 289.83 389.94 289.99 C 388.07 290.00 386.19 290.06 384.36 289.70 C 383.40 283.18 384.12 276.54 383.97 269.97 C 384.05 264.35 383.74 258.72 384.12 253.10 Z" />
<path fill="#f7f8f9" opacity="1.00" d=" M 300.10 298.17 C 326.74 297.85 353.39 298.12 380.04 298.05 C 432.96 298.07 485.89 297.93 538.82 298.15 C 539.18 339.83 538.86 381.53 538.94 423.22 C 534.62 423.54 530.29 423.57 525.97 423.30 L 525.54 423.28 C 514.44 422.93 503.34 423.83 492.23 423.12 C 492.23 421.17 492.25 419.24 492.26 417.30 C 489.00 417.24 485.75 417.23 482.49 417.27 C 482.50 419.24 482.50 421.22 482.51 423.20 C 479.47 423.25 476.44 423.28 473.41 423.32 C 473.43 424.51 473.45 425.71 473.47 426.91 C 444.29 427.03 415.10 426.93 385.92 426.95 C 373.54 426.83 361.15 427.25 348.77 426.75 C 352.77 423.96 357.37 420.85 358.73 415.91 C 359.65 412.31 355.94 409.92 352.88 409.39 C 348.44 408.58 344.52 411.67 341.70 414.75 C 337.07 419.99 333.62 426.19 330.93 432.62 C 329.92 432.91 328.90 433.20 327.90 433.48 C 328.30 430.88 328.73 428.28 329.03 425.67 C 338.54 416.70 345.92 404.37 346.08 390.99 C 346.31 386.61 344.25 382.48 344.34 378.14 C 345.77 374.50 348.90 371.76 350.00 367.95 C 351.27 364.31 351.01 359.75 348.09 356.96 C 343.53 352.70 335.02 355.26 333.13 361.03 C 332.47 365.83 336.62 369.51 337.33 374.07 C 336.47 375.86 334.75 376.99 333.38 378.35 C 326.63 384.43 321.56 392.81 320.85 402.00 C 320.05 410.70 322.92 419.34 327.63 426.58 L 327.55 427.57 C 325.31 424.69 323.22 421.70 320.97 418.84 C 320.48 412.94 317.13 407.85 313.83 403.14 C 311.02 399.32 308.13 395.49 304.63 392.29 C 303.17 390.73 300.92 390.89 299.00 390.56 C 299.75 389.14 300.03 387.55 300.04 385.96 C 300.07 356.70 299.85 327.43 300.10 298.17 M 313.29 306.30 C 309.78 307.93 310.15 313.93 314.03 314.80 C 317.45 315.86 321.24 311.95 319.42 308.65 C 318.69 306.00 315.58 305.40 313.29 306.30 M 313.28 326.36 C 310.62 327.66 310.05 331.82 312.22 333.82 C 314.44 336.10 319.01 334.85 319.66 331.69 C 320.84 328.10 316.77 324.37 313.28 326.36 M 313.40 346.38 C 310.71 347.45 310.28 351.08 311.71 353.30 C 313.53 355.93 318.54 355.63 319.39 352.29 C 321.34 348.77 316.88 344.72 313.40 346.38 M 313.36 366.35 C 310.29 367.71 310.12 372.41 312.71 374.33 C 314.99 375.80 318.55 375.16 319.45 372.34 C 321.29 368.73 316.88 364.73 313.36 366.35 M 314.24 386.37 C 311.03 386.83 309.83 390.83 311.74 393.26 C 313.47 396.07 318.67 395.79 319.47 392.32 C 321.08 389.10 317.68 385.17 314.24 386.37 Z" />
<path fill="#f7f8f9" opacity="1.00" d=" M 240.00 334.05 C 239.67 337.24 236.77 332.87 240.00 334.05 Z" />
<path fill="#f7f8f9" opacity="1.00" d=" M 300.04 405.98 C 301.46 406.33 302.90 406.61 304.35 406.92 C 302.84 409.12 299.71 412.06 302.17 414.74 C 306.44 419.63 313.67 418.87 319.53 419.78 C 322.66 423.08 326.11 426.48 326.99 431.17 C 326.41 430.68 325.26 429.72 324.69 429.24 L 324.21 428.85 C 324.09 428.77 323.85 428.60 323.73 428.51 C 321.23 426.92 319.06 424.56 316.13 423.81 C 312.51 424.11 306.50 423.77 306.56 428.93 C 305.26 426.66 302.40 427.02 300.20 426.57 C 299.81 419.71 300.16 412.84 300.04 405.98 Z" />
</g>
<g id="#fcf7d3ff">
<path fill="#fcf7d3" opacity="1.00" d=" M 533.12 234.07 C 541.37 234.14 549.62 234.16 557.87 234.14 C 558.05 238.32 558.18 242.49 558.14 246.67 C 557.94 299.16 558.17 351.65 558.04 404.15 C 557.98 410.50 557.96 416.85 558.02 423.20 L 557.06 423.22 C 556.88 360.41 556.98 297.61 556.97 234.80 C 549.73 234.65 542.43 234.18 535.24 235.28 C 534.71 234.98 533.65 234.37 533.12 234.07 Z" />
</g>
<g id="#f9beafff">
<path fill="#f9beaf" opacity="1.00" d=" M 296.44 271.35 C 298.11 268.42 298.19 264.58 301.05 262.43 C 302.92 269.12 298.28 274.78 296.32 280.81 C 296.11 281.36 295.70 282.47 295.50 283.02 C 293.86 282.36 292.14 281.63 291.16 280.07 C 292.08 276.77 294.82 274.33 296.44 271.35 Z" />
</g>
<g id="#fc6270ff">
<path fill="#fc6270" opacity="1.00" d=" M 234.89 274.94 C 243.29 270.67 254.21 274.73 258.78 282.74 C 260.86 282.39 262.93 282.02 265.01 281.70 C 265.54 282.04 266.61 282.72 267.14 283.06 C 265.15 285.10 262.36 285.98 259.83 287.15 C 250.67 290.84 241.32 294.09 231.78 296.65 C 230.20 296.89 228.61 297.06 227.02 297.24 C 227.33 296.13 227.63 295.03 227.93 293.94 C 225.83 286.93 228.27 278.57 234.89 274.94 Z" />
<path fill="#fc6270" opacity="1.00" d=" M 456.30 471.75 C 458.99 471.85 461.69 471.94 464.40 472.00 C 464.86 473.39 465.33 474.79 465.80 476.19 L 466.08 477.00 C 462.32 476.99 458.56 477.08 454.81 476.95 L 454.59 475.99 C 455.20 474.59 455.79 473.18 456.30 471.75 Z" />
<path fill="#fc6270" opacity="1.00" d=" M 452.62 481.13 L 452.63 481.13 C 457.77 480.86 462.93 481.07 468.08 480.93 C 468.70 482.64 469.50 484.27 470.31 485.90 C 463.76 486.10 457.21 485.89 450.66 486.15 L 450.97 484.93 C 451.51 483.66 452.07 482.39 452.62 481.13 Z" />
<path fill="#fc6270" opacity="1.00" d=" M 448.85 490.68 C 456.48 489.29 464.30 490.39 472.01 489.88 L 472.50 491.08 C 473.44 491.33 474.40 491.58 475.36 491.82 C 475.47 492.45 475.70 493.72 475.82 494.35 C 473.93 494.85 471.99 495.08 470.05 495.05 C 461.74 494.94 453.44 495.04 445.13 494.99 L 444.99 493.86 C 445.02 493.34 445.09 492.30 445.12 491.78 C 446.35 491.39 447.60 491.02 448.85 490.68 Z" />
</g>
<g id="#f7b29bff">
<path fill="#f7b29b" opacity="1.00" d=" M 245.42 299.86 C 250.64 299.32 256.04 297.87 259.78 293.95 C 259.86 297.04 260.82 300.01 262.02 302.83 C 261.13 305.27 260.44 307.83 259.07 310.07 C 257.31 311.96 254.42 311.19 252.13 311.39 C 251.31 312.64 250.50 313.88 249.75 315.16 C 249.27 317.86 250.06 320.53 250.87 323.09 C 250.38 323.82 249.41 325.27 248.93 326.00 C 248.32 325.71 247.11 325.14 246.51 324.85 C 246.55 324.31 246.63 323.22 246.66 322.68 C 244.57 320.15 241.82 318.31 239.21 316.38 C 239.80 313.52 240.38 310.66 241.02 307.82 C 241.82 306.83 244.09 305.77 243.00 304.20 C 242.14 302.09 240.77 299.93 241.88 297.63 C 243.06 298.36 244.24 299.10 245.42 299.86 Z" />
</g>
<g id="#e8e9edff">
<path fill="#e8e9ed" opacity="1.00" d=" M 313.29 306.30 C 315.58 305.40 318.69 306.00 319.42 308.65 C 321.24 311.95 317.45 315.86 314.03 314.80 C 310.15 313.93 309.78 307.93 313.29 306.30 Z" />
<path fill="#e8e9ed" opacity="1.00" d=" M 313.28 326.36 C 316.77 324.37 320.84 328.10 319.66 331.69 C 319.01 334.85 314.44 336.10 312.22 333.82 C 310.05 331.82 310.62 327.66 313.28 326.36 Z" />
<path fill="#e8e9ed" opacity="1.00" d=" M 313.40 346.38 C 316.88 344.72 321.34 348.77 319.39 352.29 C 318.54 355.63 313.53 355.93 311.71 353.30 C 310.28 351.08 310.71 347.45 313.40 346.38 Z" />
<path fill="#e8e9ed" opacity="1.00" d=" M 313.36 366.35 C 316.88 364.73 321.29 368.73 319.45 372.34 C 318.55 375.16 314.99 375.80 312.71 374.33 C 310.12 372.41 310.29 367.71 313.36 366.35 Z" />
<path fill="#e8e9ed" opacity="1.00" d=" M 314.24 386.37 C 317.68 385.17 321.08 389.10 319.47 392.32 C 318.67 395.79 313.47 396.07 311.74 393.26 C 309.83 390.83 311.03 386.83 314.24 386.37 Z" />
</g>
<g id="#3491feff">
<path fill="#3491fe" opacity="1.00" d=" M 235.99 316.68 C 238.97 319.31 241.32 322.53 243.17 326.04 C 244.33 324.91 245.49 323.79 246.66 322.68 C 246.63 323.22 246.55 324.31 246.51 324.85 C 246.48 325.28 246.42 326.14 246.39 326.58 L 245.83 324.78 C 244.89 325.83 244.00 326.92 243.10 328.01 C 241.04 324.29 239.05 320.34 235.52 317.78 C 235.64 317.51 235.87 316.96 235.99 316.68 Z" />
<path fill="#3491fe" opacity="1.00" d=" M 247.38 327.76 C 249.57 337.98 247.75 348.41 248.05 358.72 C 247.16 364.41 248.18 370.14 247.83 375.85 L 247.18 377.00 C 246.06 361.07 248.37 345.11 246.77 329.21 L 247.38 327.76 Z" />
<path fill="#3491fe" opacity="1.00" d=" M 313.26 463.23 C 321.13 463.31 329.01 463.20 336.89 463.29 C 336.03 469.77 335.34 476.27 334.54 482.77 C 334.46 483.47 334.30 484.86 334.22 485.56 C 333.92 488.19 333.63 490.82 333.35 493.46 C 333.03 493.66 332.38 494.06 332.06 494.26 C 326.90 494.22 321.73 494.35 316.57 494.05 C 316.18 489.32 315.62 484.60 315.16 479.87 C 315.00 478.30 314.85 476.73 314.70 475.16 C 314.28 471.18 314.09 467.15 313.26 463.23 Z" />
</g>
<g id="#0176feff">
<path fill="#0176fe" opacity="1.00" d=" M 252.01 319.08 L 252.58 318.77 C 253.73 319.46 254.30 320.51 254.30 321.91 L 253.49 322.00 C 252.80 321.12 252.31 320.15 252.01 319.08 Z" />
<path fill="#0176fe" opacity="1.00" d=" M 485.14 423.15 C 487.50 423.11 489.87 423.10 492.23 423.12 C 503.34 423.83 514.44 422.93 525.54 423.28 C 517.07 431.39 508.13 439.00 499.78 447.23 L 499.24 447.24 C 494.45 447.17 489.67 447.36 484.89 447.08 C 492.87 439.06 501.69 431.94 509.63 423.89 C 506.23 423.90 502.47 422.73 499.29 424.18 C 490.43 431.42 482.66 439.95 473.67 447.04 C 473.69 442.72 473.28 438.38 473.70 434.08 C 476.97 429.92 481.39 426.85 485.14 423.15 Z" />
<path fill="#0176fe" opacity="1.00" d=" M 525.97 423.30 C 530.29 423.57 534.62 423.54 538.94 423.22 C 543.04 423.09 547.15 423.15 551.26 423.19 C 542.87 431.25 533.94 438.76 525.73 447.02 L 525.08 447.20 C 520.17 447.39 515.25 447.30 510.34 447.32 C 518.35 439.19 527.23 431.94 535.33 423.89 C 532.21 423.70 529.09 423.49 525.97 423.30 Z" />
<path fill="#0176fe" opacity="1.00" d=" M 577.74 423.32 C 580.36 423.36 582.99 423.40 585.62 423.53 C 586.00 428.61 585.81 433.70 585.78 438.80 C 582.61 441.48 579.47 444.21 576.74 447.35 C 571.64 447.17 566.53 447.31 561.44 447.34 C 569.10 439.81 577.35 432.89 585.03 425.38 C 584.96 425.08 584.82 424.49 584.76 424.20 C 582.57 423.16 580.07 423.53 577.74 423.32 Z" />
<path fill="#0176fe" opacity="1.00" d=" M 555.26 429.31 C 557.48 427.31 559.50 425.02 562.11 423.49 C 566.77 422.89 571.51 423.34 576.20 423.50 C 568.43 431.81 559.27 438.71 551.47 447.00 C 546.38 447.58 541.25 447.28 536.15 447.34 C 542.03 440.84 548.96 435.39 555.26 429.31 Z" />
<path fill="#0176fe" opacity="1.00" d=" M 313.44 456.61 C 318.05 456.29 322.68 456.59 327.30 456.49 L 328.28 456.49 C 331.59 456.56 334.94 456.21 338.22 456.80 C 339.22 458.27 338.90 460.15 339.11 461.84 C 338.55 462.20 337.45 462.93 336.89 463.29 C 329.01 463.20 321.13 463.31 313.26 463.23 C 312.80 462.89 311.90 462.20 311.45 461.86 C 311.64 460.08 310.75 456.69 313.44 456.61 Z" />
</g>
<g id="#a5d1ffff">
<path fill="#a5d1ff" opacity="1.00" d=" M 250.87 323.09 C 251.17 324.01 251.47 324.95 251.75 325.89 C 250.58 327.26 250.46 329.18 251.37 330.74 C 251.63 330.29 252.16 329.39 252.42 328.94 C 252.53 329.97 252.66 331.00 252.80 332.03 C 251.85 333.60 251.17 335.90 252.35 337.52 C 252.61 337.44 253.13 337.28 253.38 337.21 C 254.77 347.78 253.52 358.47 254.20 369.09 C 254.74 373.69 255.22 378.31 255.17 382.96 C 254.96 384.06 254.73 385.16 254.48 386.26 C 254.50 384.37 254.54 382.49 254.59 380.61 C 252.68 380.68 250.78 380.74 248.87 380.81 C 248.86 382.43 248.86 384.07 248.90 385.71 C 248.88 388.96 248.65 392.22 247.93 395.40 C 248.41 389.24 247.49 383.13 247.18 377.00 L 247.83 375.85 C 248.90 374.46 248.60 372.63 248.65 371.02 C 248.55 366.91 248.41 362.81 248.05 358.72 C 247.75 348.41 249.57 337.98 247.38 327.76 L 246.77 329.21 C 246.64 328.33 246.52 327.45 246.39 326.58 C 246.42 326.14 246.48 325.28 246.51 324.85 C 247.11 325.14 248.32 325.71 248.93 326.00 C 249.41 325.27 250.38 323.82 250.87 323.09 Z" />
</g>
<g id="#6fb2feff">
<path fill="#6fb2fe" opacity="1.00" d=" M 251.37 330.74 C 250.46 329.18 250.58 327.26 251.75 325.89 C 251.92 326.65 252.25 328.18 252.42 328.94 C 252.16 329.39 251.63 330.29 251.37 330.74 Z" />
</g>
<g id="#61a9feff">
<path fill="#61a9fe" opacity="1.00" d=" M 252.35 337.52 C 251.17 335.90 251.85 333.60 252.80 332.03 C 253.07 333.74 253.29 335.47 253.38 337.21 C 253.13 337.28 252.61 337.44 252.35 337.52 Z" />
</g>
<g id="#f65097ff">
<path fill="#f65097" opacity="1.00" d=" M 333.13 361.03 C 335.02 355.26 343.53 352.70 348.09 356.96 C 351.01 359.75 351.27 364.31 350.00 367.95 C 348.90 371.76 345.77 374.50 344.34 378.14 C 344.25 382.48 346.31 386.61 346.08 390.99 C 345.92 404.37 338.54 416.70 329.03 425.67 C 329.49 420.78 330.07 415.89 330.33 410.98 C 330.72 405.12 328.51 399.22 330.31 393.45 C 331.11 389.00 334.09 385.53 336.92 382.21 C 330.44 387.25 327.58 395.81 328.67 403.82 C 329.66 411.42 328.62 419.04 327.63 426.58 C 322.92 419.34 320.05 410.70 320.85 402.00 C 321.56 392.81 326.63 384.43 333.38 378.35 C 334.75 376.99 336.47 375.86 337.33 374.07 C 336.62 369.51 332.47 365.83 333.13 361.03 Z" />
<path fill="#f65097" opacity="1.00" d=" M 300.04 405.98 C 294.01 403.14 294.24 394.50 299.00 390.56 C 300.92 390.89 303.17 390.73 304.63 392.29 C 308.13 395.49 311.02 399.32 313.83 403.14 C 317.13 407.85 320.48 412.94 320.97 418.84 C 315.30 414.24 311.25 408.13 306.22 402.93 C 309.24 409.56 314.63 414.56 319.53 419.78 C 313.67 418.87 306.44 419.63 302.17 414.74 C 299.71 412.06 302.84 409.12 304.35 406.92 C 302.90 406.61 301.46 406.33 300.04 405.98 Z" />
<path fill="#f65097" opacity="1.00" d=" M 341.70 414.75 C 344.52 411.67 348.44 408.58 352.88 409.39 C 355.94 409.92 359.65 412.31 358.73 415.91 C 357.37 420.85 352.77 423.96 348.77 426.75 C 345.22 428.99 341.40 430.79 337.34 431.91 C 339.22 430.23 341.10 428.56 342.93 426.84 C 345.85 424.17 347.14 420.30 348.53 416.72 C 346.20 419.44 344.65 422.72 342.40 425.50 C 339.28 428.81 335.27 431.26 330.93 432.62 C 333.62 426.19 337.07 419.99 341.70 414.75 Z" />
<path fill="#f65097" opacity="1.00" d=" M 306.56 428.93 C 306.50 423.77 312.51 424.11 316.13 423.81 C 319.06 424.56 321.23 426.92 323.73 428.51 C 320.44 431.19 316.75 428.20 313.45 427.16 C 315.73 431.31 320.89 431.47 325.00 430.65 C 325.29 430.89 325.87 431.36 326.15 431.60 C 320.06 434.83 310.94 434.94 306.56 428.93 Z" />
</g>
<g id="#b2bcccff">
<path fill="#b2bccc" opacity="1.00" d=" M 214.32 364.66 C 214.80 365.01 215.76 365.71 216.24 366.05 C 215.07 368.57 211.62 366.30 214.32 364.66 Z" />
</g>
<g id="#f8c5b8ff">
<path fill="#f8c5b8" opacity="1.00" d=" M 223.52 371.80 C 224.36 371.10 225.24 370.44 226.15 369.83 C 228.60 371.47 229.90 374.57 227.96 377.14 C 226.47 375.36 224.99 373.58 223.52 371.80 Z" />
</g>
<g id="#869ab8ff">
<path fill="#869ab8" opacity="1.00" d=" M 248.90 385.71 C 249.68 391.15 250.06 396.65 249.81 402.15 C 249.37 400.36 248.92 398.57 248.49 396.79 C 248.18 397.90 247.54 400.12 247.23 401.23 C 247.36 399.27 247.60 397.32 247.93 395.40 C 248.65 392.22 248.88 388.96 248.90 385.71 Z" />
</g>
<g id="#081432ff">
<path fill="#081432" opacity="1.00" d=" M 233.94 401.11 C 238.71 401.34 243.46 401.74 248.23 402.07 C 249.73 413.59 252.10 424.98 253.51 436.52 C 252.49 440.25 250.78 443.73 249.28 447.29 C 243.33 461.38 237.35 475.47 231.40 489.57 C 229.38 488.43 227.30 487.42 225.21 486.41 C 227.82 475.15 231.17 464.07 234.40 452.98 C 236.21 446.18 239.35 439.45 238.35 432.24 C 237.93 421.74 236.07 411.37 233.94 401.11 Z" />
</g>
<g id="#8ec6ffff">
<path fill="#8ec6ff" opacity="1.00" d=" M 473.41 423.32 C 476.44 423.28 479.47 423.25 482.51 423.20 C 483.16 423.19 484.48 423.16 485.14 423.15 C 481.39 426.85 476.97 429.92 473.70 434.08 C 473.28 438.38 473.69 442.72 473.67 447.04 C 482.66 439.95 490.43 431.42 499.29 424.18 C 502.47 422.73 506.23 423.90 509.63 423.89 C 501.69 431.94 492.87 439.06 484.89 447.08 C 489.67 447.36 494.45 447.17 499.24 447.24 C 497.21 447.37 495.19 447.55 493.17 447.59 L 492.29 447.58 C 489.03 447.47 485.78 447.32 482.53 447.29 C 479.35 447.26 476.18 447.20 473.02 447.10 C 473.01 445.70 473.02 444.30 473.04 442.91 C 473.08 437.57 473.53 432.24 473.47 426.91 C 473.45 425.71 473.43 424.51 473.41 423.32 Z" />
<path fill="#8ec6ff" opacity="1.00" d=" M 525.54 423.28 L 525.97 423.30 C 529.09 423.49 532.21 423.70 535.33 423.89 C 527.23 431.94 518.35 439.19 510.34 447.32 C 506.81 447.30 503.29 447.20 499.78 447.23 C 508.13 439.00 517.07 431.39 525.54 423.28 Z" />
<path fill="#8ec6ff" opacity="1.00" d=" M 551.26 423.19 C 553.19 423.20 555.12 423.23 557.06 423.22 L 558.02 423.20 C 561.34 423.09 564.66 422.97 567.99 423.02 C 571.24 423.06 574.48 423.20 577.74 423.32 C 580.07 423.53 582.57 423.16 584.76 424.20 C 584.82 424.49 584.96 425.08 585.03 425.38 C 577.35 432.89 569.10 439.81 561.44 447.34 C 558.11 447.33 554.79 447.07 551.47 447.00 C 559.27 438.71 568.43 431.81 576.20 423.50 C 571.51 423.34 566.77 422.89 562.11 423.49 C 559.50 425.02 557.48 427.31 555.26 429.31 C 548.96 435.39 542.03 440.84 536.15 447.34 C 532.67 447.35 529.20 447.17 525.73 447.02 C 533.94 438.76 542.87 431.25 551.26 423.19 Z" />
<path fill="#8ec6ff" opacity="1.00" d=" M 576.74 447.35 C 579.47 444.21 582.61 441.48 585.78 438.80 C 585.74 441.67 585.70 444.54 585.63 447.42 C 583.01 447.33 580.39 447.24 577.77 447.30 C 577.51 447.31 577.00 447.34 576.74 447.35 Z" />
</g>
<g id="#fb6c7aff">
<path fill="#fb6c7a" opacity="1.00" d=" M 458.74 465.92 C 459.92 463.92 461.91 465.47 462.53 467.07 L 461.99 467.93 C 461.08 467.96 459.28 468.03 458.38 468.06 C 458.47 467.52 458.65 466.45 458.74 465.92 Z" />
</g>
<g id="#ffeceeff">
<path fill="#ffecee" opacity="1.00" d=" M 456.30 471.75 C 456.96 469.74 457.57 467.69 458.74 465.92 C 458.65 466.45 458.47 467.52 458.38 468.06 C 459.28 468.03 461.08 467.96 461.99 467.93 L 462.53 467.07 C 463.25 468.67 463.82 470.33 464.40 472.00 C 461.69 471.94 458.99 471.85 456.30 471.75 Z" />
<path fill="#ffecee" opacity="1.00" d=" M 452.63 481.13 C 453.17 479.37 453.79 477.64 454.59 475.99 L 454.81 476.95 C 458.56 477.08 462.32 476.99 466.08 477.00 L 465.80 476.19 L 466.66 476.02 C 467.16 477.65 467.59 479.30 468.08 480.93 C 462.93 481.07 457.77 480.86 452.63 481.13 Z" />
<path fill="#ffecee" opacity="1.00" d=" M 448.85 490.68 C 449.30 488.67 449.97 486.72 450.97 484.93 L 450.66 486.15 C 457.21 485.89 463.76 486.10 470.31 485.90 C 470.93 487.20 471.47 488.53 472.01 489.88 C 464.30 490.39 456.48 489.29 448.85 490.68 Z" />
</g>
<g id="#d8dae1ff">
<path fill="#d8dae1" opacity="1.00" d=" M 591.30 475.79 C 591.52 476.02 591.97 476.47 592.20 476.70 C 591.36 483.62 591.82 490.59 591.81 497.54 C 591.72 497.89 591.53 498.60 591.44 498.96 L 592.63 498.89 C 599.89 499.02 607.16 499.07 614.42 498.84 L 614.97 498.87 C 614.90 498.50 614.76 497.75 614.70 497.37 C 615.51 490.18 615.33 482.99 615.03 475.78 C 616.07 477.68 615.74 479.90 615.77 481.99 C 615.63 486.69 615.68 491.40 615.91 496.10 C 624.69 496.82 633.59 496.64 642.27 498.27 C 640.18 499.85 637.47 499.70 634.99 499.97 C 612.05 501.73 589.02 501.70 566.03 502.53 C 533.01 502.88 499.99 503.56 466.95 503.36 C 435.65 504.17 404.32 503.48 373.01 503.76 C 363.32 503.55 353.62 504.05 343.94 503.41 C 305.64 503.42 267.34 503.12 229.05 502.24 C 209.34 501.69 189.61 501.45 169.94 500.04 C 167.48 499.73 164.72 499.99 162.69 498.31 C 169.02 496.87 175.56 497.01 181.99 496.45 C 194.96 496.16 207.92 495.20 220.90 495.30 C 222.89 495.39 224.80 494.81 226.66 494.18 C 230.33 494.34 233.26 496.84 236.70 497.79 C 237.15 496.93 237.57 496.06 237.96 495.18 C 246.02 494.55 254.21 494.25 262.26 495.04 C 267.59 496.46 273.48 495.83 278.76 494.33 C 291.36 493.98 303.97 493.84 316.57 494.05 C 321.73 494.35 326.90 494.22 332.06 494.26 C 332.38 494.06 333.03 493.66 333.35 493.46 C 349.22 494.07 365.11 493.38 380.99 493.60 C 402.32 493.79 423.67 493.30 444.99 493.86 L 445.13 494.99 C 453.44 495.04 461.74 494.94 470.05 495.05 C 471.99 495.08 473.93 494.85 475.82 494.35 C 477.97 493.63 480.24 493.88 482.45 494.20 C 485.71 494.60 489.00 494.59 492.27 494.37 C 499.49 493.75 506.75 494.03 513.98 494.02 C 532.00 494.68 550.08 493.82 568.06 495.20 L 568.26 496.05 C 571.47 496.06 574.70 496.03 577.90 495.66 C 582.27 495.10 586.67 495.25 591.07 495.26 C 591.48 488.77 591.16 482.28 591.30 475.79 Z" />
</g>
<g id="#4897fcff">
<path fill="#4897fc" opacity="1.00" d=" M 225.21 486.41 C 227.30 487.42 229.38 488.43 231.40 489.57 C 233.81 491.16 235.85 493.23 237.96 495.18 C 237.57 496.06 237.15 496.93 236.70 497.79 C 233.26 496.84 230.33 494.34 226.66 494.18 C 225.95 494.09 224.52 493.92 223.81 493.83 C 223.81 491.28 224.47 488.82 225.21 486.41 Z" />
<path fill="#4897fc" opacity="1.00" d=" M 261.95 489.08 C 263.13 489.06 264.32 489.07 265.50 489.10 C 268.88 489.70 272.22 490.51 275.52 491.46 C 277.13 491.66 277.80 493.24 278.76 494.33 C 273.48 495.83 267.59 496.46 262.26 495.04 C 262.12 493.05 262.07 491.06 261.95 489.08 Z" />
</g>
</svg>
